<?xml version="1.0" encoding="utf-8"?>
<!-- Generator: Adobe Illustrator 23.0.1, SVG Export Plug-In . SVG Version: 6.00 Build 0)  -->
<svg version="1.1" xmlns="http://www.w3.org/2000/svg" xmlns:xlink="http://www.w3.org/1999/xlink" x="0px" y="0px"
	 viewBox="0 0 1100 175" style="enable-background:new 0 0 1100 175;" xml:space="preserve">
<style type="text/css">
	.st0{fill:#F4F4F4;}
	.st1{fill:#AA8275;}
	.st2{fill:#E2E2E2;}
	.st3{fill:#000410;}
	.st4{fill:#E9EAEF;}
	.st5{fill:#686A7F;}
	.st6{fill:#D8D8D8;}
	.st7{fill:#EAEAEA;}
	.st8{fill:#BFC3DC;}
	.st9{fill:#0A0B10;}
	.st10{fill:#F0BC2B;}
	.st11{fill:#EAEAD6;}
	.st12{fill:#B58818;}
	.st13{fill:#FFFFFF;}
	.st14{display:none;fill:none;stroke:#FFFFFF;stroke-miterlimit:10;}
	.st15{fill:#F7F7F7;}
	.st16{fill:#E8E8E8;}
	.st17{fill:#1E1E1E;}
	.st18{fill:#033363;}
	.st19{fill:#003D66;}
	.st20{fill:#002333;}
	.st21{fill:#013B4F;}
	.st22{fill:#004589;}
	.st23{fill:#CB9480;}
	.st24{fill:#040E31;}
	.st25{fill:#62757A;}
	.st26{fill:#4C4C4C;}
	.st27{fill:#D4D6DD;}
	.st28{fill:#444143;}
	.st29{fill:#302E2F;}
	.st30{fill:#748084;}
</style>
<g id="kid">
	<path class="st0" d="M580.78,175.16c0,0,46.3-34.63,53.38-42.75c6.83-25.08,25.3-32.72,27.07-37.06s-15.73-34.57-12.48-48.96
		c2-37.67,63.63-46.23,63.63-46.23l68.76-0.25l7.2,175.25H580.78z"/>
	<path class="st1" d="M699.72,36.63C684.33,34.65,681.33,33,681.33,33l2.02-2.86l17.49,4.73C700.84,34.87,700.64,36.63,699.72,36.63
		z"/>
	<polygon class="st2" points="642.5,175 679.5,145.25 741.54,170.75 744.27,175 	"/>
	<path class="st0" d="M983.88,175.11c0,0-7.88-11.11-7.38-16.02c4.55-3.93,0.97-8.84,5.13-17.48c10.25-7.74,16.38-57.95,7.29-77.7
		s-20.84-39.16-23.16-50s-3.01-14.06-3.01-14.06l-20.4,0L940.5,175L983.88,175.11z"/>
	<polygon class="st3" points="648.75,175 664.5,175 685.63,155.88 680.25,148.13 	"/>
	<path class="st4" d="M681.33,33c0,0,1.5,2.69,1,3.63c-13.21-6.88-15.19-5.64-20.19-10.14C652.81,16.5,652-0.06,652-0.06h6
		L681.33,33z"/>
	<polygon class="st5" points="683,151.5 655,175 665.75,175 687.63,156.5 	"/>
	<polygon class="st6" points="683,152.88 657.38,175 656.38,175 	"/>
	<path class="st7" d="M947,175c0,0,16.13-21.75,19-27c2.65-5.91,3-11.63,5-13c3.25-2,5.97-6.17,7-9s4-8.63,4-11s-0.74-3.06,0-6
		s3.13-10.5,3.13-16s-4.25-11-3.13-14c0-6.5-3.34-12.46-5.63-17.63C973.5,54.5,964.63,33.38,960,29c-3.85-4.56-12-13-12-13
		s3.25-4.25,4-7s0-4,0-4s0.25-3,2-4c2.13,0.5,3.13,0,4-1c1.25,0.63-303,0-303,0s0.88,21.13,22,29c4,3,10,4,10,4l12,2
		c0.54,1.95,1.88,4.55,10,4c2.48-0.17,0,6,0,6s-1.63,2.88-1,4c-11.5,11.63-19,47-19,47s-1.63,11,2,15c-7,0.88-8,5-8,5s-0.13,3.5,1,5
		c-5.5-0.75-6.88-1.25-9,0s-2.92,6.75-3,9s-0.88,11.63,3,16c1.5,1.38,4,2,4,2s2.37,4.38,3.28,5.09c-0.21,0.51,0.72,0.62,1.72,1.91
		c2.25,1.63,3.13,5.75,5,7s3.25-0.38,5,1s7.63,3.5,9,3s1.79-2,1.79-2s10.08,3.63,17.21,2c3.13,4.5,8.5,5.88,14,6c1.13,1.88,2,2,2,2
		v1H947z"/>
	<path class="st8" d="M770,0c-1.19,9.41-8.06,15.15-11.63,20.75c-1.63,3.38-0.75,7.87-5.19,12.78s-18.36,30.16-19.94,34.66
		s-1.19,11.25-2.63,10.33c-3.8-6.94,15-39.36,16.44-42.75s6.03-7.77,8.06-11.64s8.63-14,9.88-17.19S765.94,0,765.94,0
		S768.25,0,770,0z"/>
	<path class="st8" d="M739.88,37.44c-24.44,14.5-27.5,7.63-28.06,4c0,0-1.38,4.13-1.75,5.69c-0.05,0.2-0.13,1.16-0.94,2.28
		c-7.62,7.97-14.73,28.77-18.42,43.95c-0.56,7.63,4.05,18.76,4.17,16.32c0-3-3.09-7.13-2.13-17.19
		c6.94-21.44,17.94-41.44,21.38-40.69c2.25,0.38,1.58,4.69,3.35,3.31c1.77-1.38,3.46-5.97,4.15-4.67s-10.88,32.11-8.19,30.92
		S723.75,53.56,729.06,48C731.67,45.45,739.88,38.13,739.88,37.44z"/>
	<path class="st8" d="M719.83,35.16c-2.52,0.04-3.44,0.44-4.78,0.61c0,0-7.57-1.06-12.43-0.29c-0.23-1.87,13.31-1.13,14.22-1.16
		c0.91-0.02,1.67,0.6,7.06-0.79C722.03,33.75,719.83,35.16,719.83,35.16z"/>
	<path class="st9" d="M951.79,19.98c1.04,0,14.34,12.02,20.04,30.81c21.17,40.34,10.57,62.64,10.1,65.11
		c-1.42,7.44-5.63,15.78-10.93,19.11c0,0-9.2,21.06-12.16,23.69C955.88,161.31,949.31,175,947,175s-12.88,0-12.88,0l15.38-16.63
		l16.63-16.63l6.69-14.92l2.06-33.08L972.75,65l-11.38-23.38l-2.75-5.38c0,0-21.19-25.18-11.84-19.81c0.61,0.12,0.87-0.42,1.21-0.38
		C949.4,16.75,949.94,18.17,951.79,19.98z"/>
	<path class="st9" d="M699,35c0,0,0,4.88,10.75,4.25c2.12-0.37,4.87-1.63,7.69-2.12C718.5,34.08,699,35,699,35z"/>
	<path class="st9" d="M797.47,140.44c3.28,2.73,12.03,20.15-3.05,34.56c-4.25,0.25-25.83,0-25.83,0S794.03,139.96,797.47,140.44z"/>
	<path class="st9" d="M804.25,152.17c-0.13-0.97,0.36-1.65,1.1-2.11c1.23,0.11,2.87,0.49,4.65-1.05c3.56,5,7.33,6.59,9.63,12
		l6.17,14h-22.81C802.98,175,806.31,162,804.25,152.17z"/>
	<path class="st9" d="M736,172c0,0-10,0.83-14.83-6.33c-4.08-3.92-4.58-10.5-4.58-10.5s-4.33-1.46-7.58-22.75
		c1.33-0.5,30.17,31.17,30.17,31.17l7.25,11.42c0,0-7.2,0-8.42,0C736.78,173.96,736,172,736,172z"/>
	<path class="st9" d="M817.82,157.77c5.27,8.86,13.82,12.89,22.14,17.23h-13.42l-7.67-12.21L817.82,157.77z"/>
	<path class="st10" d="M788.17,108.67c-0.92-1.33-2.67-14.04-2.67-15.67s14.13-29.58,15.5-30.67c1.38-1.08,14.54-4.83,16.33-4.83
		c1.79,0,31,17.29,31.83,18.33c0.83,1.04-0.04,6.08,1.33,6.5c1.38,0.42,5.33-1.29,6.67-1.5c1.33-0.21,30.21,20.17,30.83,21.33
		c0.63,1.16,4.35,16.47,3.33,17.83s-18.53,27.41-20.5,27.67c-1.97,0.26-15.04,2.08-18,1.33c-9.67-8.57-28.92-19.67-30.17-21.33
		s0.46-4.17-0.17-4.33c-0.63-0.17-5.83,0.54-7,0.67S789.08,110,788.17,108.67z"/>
	<path class="st10" d="M839.5,63c1,0.25,11.04-18.92,10.83-20.33c-0.21-1.42-9.92-5.71-10-7c-0.08-1.29,4.38-8.8,5.33-8.67
		c0.96,0.13,37.75,52.83,38.17,55.17c0.42,2.33-3.79,8.58-3,10c0.79,1.42,17.33,11.13,18.5,11.08c1.17-0.05,20.5-36,20.5-38.13
		s-18.13-12.21-19.67-11.79c-1.54,0.42-3.71,7.67-4.5,7.33c-0.79-0.33-37.13-53.08-38.33-55C856.13,3.75,849-0.06,849-0.06
		l-14.68,0.01c0,0-23.49,44.02-23.49,45.38C810.83,46.69,838.5,62.75,839.5,63z"/>
	<path class="st9" d="M790.67,107c-0.17-4.88-2.33-14-2.33-14c4.6-9.89,9.46-19.42,15-28c3.84-2.14,7.96-3.87,12.67-4.67
		c10.36,4.5,30.04,17.12,30.83,17.83s0.19,8.63,1,8.33s6.75-2.79,7.83-2.83c1.83-0.42,27.83,17.83,29.33,19.58s3.75,13.63,3,15.75
		s-16.75,23.83-18.5,25.17c-1.75,1.33-14.33,2.96-15.67,1.33c-15.33-13.08-26.58-17.38-28-19.33c-0.71-1.17,0.46-6.33-0.5-6.83
		c-0.96-0.5-6.29,1.75-8,1.83C815.63,121.25,794,107.33,790.67,107z"/>
	<path class="st9" d="M838.42,58.67c1.33-0.29,8.17-14.17,8.25-15.17c0.08-1-10.17-5.63-10.5-6.5c-0.33-0.88,7.96-15.13,9.33-15.5
		s42.35,58.67,42.5,60.83c0.15,2.17-3.75,6.88-3.5,8.33c0.25,1.46,12.67,7.5,13.83,7.5c1.17,0,18-30.67,17.33-32.5
		c-0.67-1.83-12.5-8.87-14.33-8.83c-1.83,0.04-4,9.29-5.17,9.17c-1.17-0.13-40.21-56.6-41-58.17C854.38,6.26,844.22,0,844.22,0
		l-6.75,0c0,0-23.14,41.5-23.14,43.5S837.08,58.96,838.42,58.67z"/>
	<path class="st10" d="M814.33,79.83c-1.46,0-7.33,12.49-7.33,14c0,1.51,17.58,13.5,19.17,13.5c1.58,0,9.67-12.17,9.67-13.75
		C835.83,92,815.79,79.83,814.33,79.83z"/>
	<path class="st10" d="M847.5,99.83c-1.63,0-7.83,12.08-7.83,13.5c0,1.42,18.33,13.5,19.33,13.5s10.83-10.17,10.83-11.83
		S849.13,99.83,847.5,99.83z"/>
	<path class="st7" d="M815.17,84.5c-1.29,0-4.33,7.92-4.33,9.08c0,1.17,13.04,10.29,14.67,9.67s6.5-8.13,6.5-9.38
		S816.46,84.5,815.17,84.5z"/>
	<path class="st7" d="M848.17,103.25c-1.17,0.88-5,8.42-5,9.25s13.83,10.67,15.33,10.67s6.83-6.33,6.83-7.5
		C865.33,114.5,849.33,102.38,848.17,103.25z"/>
	<path class="st10" d="M702.83,127.67c21.79-1.54,20.79-9.52,24.67-8.83c2.56,0.46,10.96,4.15,23,6.17
		c9.72,1.62,23.32,1.51,26.5,2.67c7.13,2.58,8.5-0.83,8.5-0.83s-1.62,9.72,12.57,13.53c9.5,28.5-19.07,34.47-26.57,34.64l-27.23,0
		c0,0-7.77-3.58-8.77-6.33s-0.29-4-0.83-5.33C732.42,162.58,712.88,135.88,702.83,127.67z"/>
	<path class="st10" d="M832,170.75c0,0,2.31,2.88,5.13,4.25c1.29,0,98.75,0,98.75,0s20.56-19.25,26.25-21.01
		c7.19-3.8,7.94-16.18,8.88-18.99s5.38-15.25,5.38-24.25c1.91-13.71,1.38-37.63-2-45.88c-6.4-18.13-14.38-28.06-16.5-30
		s-6.56-8.25-7.88-11.38S934.22,1.17,933.01-0.14c-3.33,0.14-22.08,0-22.08,0s1.44,5.01,0.75,7.51c17.94,5.5,22.31,14.5,22.31,14.5
		c6.69,6.63,11.13,19.25,11,36.63c1.88,7.5,3.25,27.88,2.5,39.13c-1.09,18.75-8.96,33.92-21,46.88
		c-13.63,13.6-28.27,22.98-44.75,24.63C865.13,171.75,845.75,171.6,832,170.75z"/>
	<path class="st10" d="M828.5,175c-5.91-4.58-8.44-16.63-11.86-18.7c1.13,6.63,1.69,13.46,6.77,18.7H828.5z"/>
	<path class="st7" d="M732.33,154.67c0.75-0.96,0.83-7.83,0.67-8.67s-4.5-3.08-5.25-2.75s0.08,1.58-0.75,2s-5.1,0.1-6.46-0.33
		c-1.35-0.44-7.14-6.92-7.04-7.33c0.1-0.42,6.84-1.03,8.25-0.33s4.54,2.58,5.25,2.58s2.93,0.29,4,0c1.07-0.29,5.5-1.83,7.08-1.92
		c1.58-0.08,5.75,4.42,6.33,6.08c0.58,1.67-1.5,9.71-1.25,12c0.17,1.25,6.06,4.58,6.08,6.08s-4.42,0.58-4.42,0.58
		s-5.26-1.5-6.25-1.59c-0.98-0.09-3.46,2.21-4.27,1.86c-0.81-0.35-5.82-6.15-6.21-6.96C727.71,155.17,731.58,155.63,732.33,154.67z"
		/>
	<path class="st9" d="M734,160.67c0.83,0.17,6.17-1.81,12.08,1.08c1.83,0-2.17-3.04-3-3.98c-0.83-0.94-1.92,0.48-2.58-0.6
		c-0.67-1.08,2-11.83,1.83-12.5c-0.17-0.67-3.08-4.42-4.75-4.83c-1.67-0.42-6.21,1.33-10.58,1.25c0,0.92,5.33,2.83,6.75,3.58
		s1,11,0.5,11.42c-0.5,0.42-4.08-0.67-4.17,0.25C730,157.25,733.17,160.5,734,160.67z"/>
	<path class="st9" d="M726.5,140.92c0.5-0.23-1.54-1.42-3.75-2.58c-2.21-1.17-7.5-0.54-7.5,0c0,0.54,4.04,5.33,4.67,5.67
		s3.92,0.25,4.67,0s1.25-2.58,1.25-2.58C725.9,141.13,726.13,140.97,726.5,140.92z"/>
	<path class="st7" d="M728.83,155.17"/>
	<path class="st9" d="M710.67,164.5c-1.04-0.06-6.88-6.85-6.58-8.58c0.29-1.73,4.23,1.21,4.92,1.08s-0.69-1.17,0-1.83
		c0.69-0.67,10.58,9.92,8.42,9.92c-2.17,0-6.58-4.94-7.5-5.58c-0.92-0.65-2.06-0.44-2.08,0.08
		C707.81,160.11,711.71,164.56,710.67,164.5z"/>
	<path class="st9" d="M705.58,162.58c-15.61-15.9-10.13-41.98-9.42-42.75c-3.42-4.08-5.08-8.83-5.08-8.83s-12.83-0.31-7.08,10
		c-4,0.56-11.77-5.31-12.72,10.75c-0.37,2.88-2.59,16.12,7.72,16.25c0.79,1.95,2.42,4.06,2.42,4.06s-1.04-15.08,0.33-16.47
		c1.38-1.4,2.88,14.04,8.17,17.42c2.52,0.38,2.75-2.67,4.42-2.21c1.67,0.46,1.17,4.88,1.17,4.88S696.67,160.73,705.58,162.58z"/>
	<path class="st9" d="M704.79,164c-1.46,5.88-11.87-1.52-11.87-1.52c-2.66,0.6-4.72,0.71-6.75-4.71c-1.19-1.23-2.52-2.42-3.17-3.77
		c0,0,8.5,3.06,9.67-0.29C692.21,161.38,704.79,163.42,704.79,164z"/>
	<path class="st9" d="M899.5,175h20.88c0,0,4.56-4.63,6.25-5.88s7.13-2.56,8.88-3.75s7-8.06,9.38-10.13s12.25-4.69,17.13-10.63
		c8-9.5,9.13-26.83,8.88-31.29c-0.25-4.46,2.06-11.4,2.63-18.08s-3.5-14.13-4.5-16.5s-0.63-13.33-2.38-18.42S962,48.63,961.88,46.5
		s-3.94-9.06-6.38-12.75S941,21,941.13,22c12.88,15.31,12,22.88,12,22.88l8.38,21.63l2.63,23.38l3.5,18.25l-10.25,29.25l-24,22
		l-21.88,13L899.5,175z"/>
	<path class="st11" d="M896.75,175h2.75c0,0,9.19-0.69,14.5-2.88s17.88-12.01,22.5-14.88s15.63-13.94,19.69-18.16
		s7.44-10.72,10.69-21.34s-1.72-22.51-1.72-22.51c0.77-8.38-2.39-21.97-3.99-29.61s-2.29-10.03-4.54-16.55s-9.12-21.95-11.47-21.95
		c4.84,9.3,9.84,28.3,10.59,32.49s4.24,23.16,3.13,31s0.75,21.83-4.63,32.54s-14.63,19.46-19.38,22.33s-11.88,11.38-18.25,15.38
		S896.75,175,896.75,175z"/>
	<path class="st9" d="M949.23,14.28c0,0,1.77-4.78,0.77-14.28c-0.69,0-2.03,0-2.03,0c1.71,0.13,0.83,16.1,0.03,16
		C948.34,15.78,949.23,14.28,949.23,14.28z"/>
	<path class="st9" d="M781.42,62.67c0.38-0.04,4.33,2.08,4.67,2.58c0.33,0.5,0.33,3.71,0.33,4.33s-2.46,4.08-3,4.42
		c-0.54,0.33-3.54,0.33-4.17,0.33s-19.33-9.71-20-10.42c-0.67-0.71-1.08-3.42-1.08-4.17s2.21-4.79,3.25-5.5
		c1.04-0.71,3.83-0.08,4.25,0c0.42,0.08,2,1.25,2.42,1.67c0.42,0.42,0.25,1.58,0.25,1.58s-0.59,1.35-1.08,1.33
		c-0.49-0.02-1.66,0.25-2.17-0.08s-1.5-1.25-1.92-1.25c-0.42,0-1.28,1.17-1.25,2c-0.25,0.82-0.04,1.08,0.08,2
		c0.45,0.26,16.71,9,17.25,9s1.96,0.13,2.42,0c0.46-0.13,0.88-1.17,1.08-1.58c0.21-0.42,0.2-1.4-0.25-1.67s-2.42-1.42-2.42-1.42
		s-0.42-0.79-0.5-1.17C779.5,64.29,781.04,62.71,781.42,62.67z"/>
	<path class="st9" d="M788.75,63.83c0.56,0,1.96-2.18,1.92-2.58c-0.04-0.41-10.57-5.27-10.67-5.67c-0.09-0.4,0.01-1.24,0.33-1.33
		c0.32-0.09,11.88,2.94,12.33,2.75c0.46-0.19,1.33-2.25,1.33-2.75s-12.05-2.52-12.17-3.08s-0.46-2.51-0.58-2.92
		s-9.81-5.56-10.25-5.75s-2.47-0.22-3,0s-4.97,6.84-4.75,7.5S788.19,63.83,788.75,63.83z"/>
	<path class="st9" d="M770.33,35.83c-0.15,0.73,0.53,3.54,0.83,3.92c0.3,0.38,20.59,10.52,21.42,10.67
		c0.82,0.15,2.25-0.17,2.83-0.42c0.58-0.25,2.76-4.48,3-5.08c0.24-0.6,0.14-2.31,0-2.83c-0.14-0.52-21.14-11.5-21.92-11.67
		c-0.78-0.17-1.53-0.52-2.5,0C773.03,30.94,770.48,35.1,770.33,35.83z"/>
	<path class="st9" d="M785.08,23.42c0.42-0.1,1.13-1.54,1.33-1.67c0.21-0.13,0.1-1.11,0-1.5c-0.1-0.39-3.41-1.84-3.83-2
		c-0.43-0.16-1.15-0.07-2.08,0c-0.97,0-3.94,5.79-4.08,6.33c-0.15,0.54-0.33,1.84,0,2.33c0.33,0.49,8.61,5.55,9.58,5.92
		c0.53,0.32,2.29,0.11,2.83,0c0.54-0.11,2.66-3.68,3.08-4.08c0.43-0.41,1.34-0.3,2.08-0.17c0.75,0.14,5.49,3.05,5.67,3.25
		c0.18,0.2,0.13,1.24,0,1.58c-0.13,0.34-0.23,0.79-0.67,1c-0.44,0.21-1.25,0-1.25,0s-1.83-1.15-2.42-1
		c-0.59,0.15-1.33,1.41-1.33,1.92c0,0.51,0.25,0.9,0.5,1.25c0.25,0.35,3.61,2.11,3.92,2.25s1.49,0.06,2.33-0.42
		c0.84-0.48,3.34-4.56,3.5-5.08c0.16-0.52-0.02-2.22-0.42-2.92c-0.4-0.7-10-6.04-10.42-6.17c-0.42-0.13-2.04-0.56-2.75,0
		c-0.43,0.25-1.91,4.13-2.33,4.29c-0.42,0.16-1,0.46-1.92,0.46c-0.92,0-6-2.9-6.08-3.25c-0.09-0.35-0.38-1.41-0.25-1.83
		c0.13-0.43,0.5-1.73,0.83-1.83c0.33-0.11,0.81-0.34,1.25-0.08c0.44,0.25,1.58,0.92,1.58,0.92S784.67,23.52,785.08,23.42z"/>
	<path class="st9" d="M781.25,14.83c0.22,0.73,22.44,12.22,23,12.42s2.19,0.44,2.75,0s2.44-5.45,2.75-6.21
		c0.31-0.76,0.31-2.55,0-3.13c-0.31-0.57-8.82-5.65-9.83-5.75c-1.01-0.1-2.05,0.72-2.5,0.42c-0.45-0.3-0.18-1.46-0.75-2.08
		c-0.57-0.63-7.1-3.93-7.92-4.17s-2.4-0.54-3.17,0c-0.77,0.54-4.26,6.25-4.33,6.75C781.18,13.59,781.03,14.1,781.25,14.83z"/>
	<path class="st9" d="M787.17,1c-0.89,0.44-1.08,1.75-1.08,2.25s0.5,0.93,1.08,1.17c0.58,0.24,11.46,1.63,13.08,1.92
		c1.63,0.29,11.35,5.74,12.08,6.25c0.73,0.51,1.67,0,1.67,0s0.83-1.09,0.83-1.67s0.05-1.1-0.5-1.67c-0.55-0.56-11.92-5.86-13-6.67
		c-1.08-0.8-2.71-2.58-2.71-2.58l-5.77-0.06c0,0,2.5,1.17,2.23,1.48C794.81,1.72,788.05,0.56,787.17,1z"/>
	<path class="st7" d="M775.44,53.75c0.32-0.08,1.5,0.25,1.88,0s0.44-1.22,0.88-1.75s0.19-1.04,0-1.58
		c-0.19-0.54-6.53-3.89-7.06-4.04s-1.09,0-1.44,0s-1.03,0.88-1.19,1.44s0,1.5,0,1.5C769.05,50.27,775.22,53.8,775.44,53.75z"/>
	<path class="st7" d="M773.94,36.13c-0.22,0.47-0.16,1.31,0,1.56s17.28,8.93,17.94,9s1.34,0.19,1.81,0s0.84-1.47,0.94-1.81
		s0.22-0.69,0-1.25s-16.75-8.76-17.19-8.88s-1.34-0.38-1.81-0.38S774.16,35.66,773.94,36.13z"/>
	<path class="st7" d="M785.5,12.58c0-0.8,1.38-1.9,1.38-1.9c0.42-0.17,0.66-0.69,1.5,0c0,0,5.31,2.94,5.63,3.06s0,1.44,0,1.44
		s-0.22,2.31-1.06,2.31S785.5,13.39,785.5,12.58z"/>
	<path class="st7" d="M797.25,18.63c0-0.72,0.8-1.45,1.17-1.83c0.36-0.39,1.52,0,1.52,0s4.78,2.4,5.31,3.08s0,1.38,0,1.38
		s-0.25,1.69-1,1.69S797.25,19.34,797.25,18.63z"/>
	<path class="st7" d="M745.77,7.38c0,0-0.38,0.54-0.38,0.73c0,0.19,0.02,0.79,0.19,0.88c0.17,0.08,0.42,0.16,0.65,0
		c0.23-0.16,0.52-1.42,0.52-1.69C746.75,7.02,745.77,7.38,745.77,7.38z"/>
	<polygon class="st9" points="736.75,9.13 727.5,4.63 733.38,10.13 	"/>
	<polygon class="st9" points="722.5,4.63 718.5,0.11 712.38,0 	"/>
	<path class="st9" d="M743.63,8.25c0-0.42,1.71-3.44,2.13-3.63s1.33-0.27,1.63,0s1.13,2.46,1.13,2.75s-0.15,0.73,0,0.88
		s0.75-0.29,1,0c0.25,0.29,0.24,1.55,0,1.88s-1.66,3-2.25,3s-1,0.13-1.25,0s-0.81-1.15-1-1.38s0.25-0.94,0.13-1.06s-1.23,0.15-1.5,0
		S743.5,8.69,743.63,8.25z"/>
	<path class="st9" d="M747.13,2.31c-0.1-0.25,0-2.15,0-2.15l2,0c0,0-0.29,1.96-0.5,2.15S747.23,2.56,747.13,2.31z"/>
	<path class="st9" d="M750.13,0.16c0,0,0.23,3.69,0.62,3.59s0.48-1.15,0.63-1.79s0-1.8,0-1.8L750.13,0.16z"/>
	<path class="st9" d="M719.63,37.13c-1.5,0.63-6.79,4.79-5.63,6C722.25,48.33,743.63,32,743.63,32s-11.71,5.38-14.81,5
		c0.73,4.38-1.52,4.21-3.44,4.25c-3.79-0.42-3.5-3.69-3.5-3.69S721.96,36.21,719.63,37.13z"/>
	<path class="st9" d="M758.38,0.17l2.96-0.02c0,0-0.63,14.09-11,23.97C758.69,11.42,758.38,0.17,758.38,0.17z"/>
	<path class="st9" d="M655,0c1.78,12.71,7.58,23.21,22,29C662.2,22.6,657.2,11.92,655,0z"/>
	<path class="st9" d="M677.67,29.46c0,0,3.83,5.83,4.42,5.54c0.58-0.29-0.67-3.17,1.27-3.06C681.63,31,677.67,29.46,677.67,29.46z"
		/>
	<path class="st10" d="M696.63,14.34c-0.88,0-7-14.34-7-14.34h13.25c0,0,3.88,1.52,3.88,2.15S697.5,14.34,696.63,14.34z"/>
	<path class="st9" d="M692.84,9.41c0.81,0,3.61-3.13,3.61-3.13l-0.64-0.84l-3.13,3.06"/>
	<path class="st9" d="M693.13,9.44c0,0.35-4.58-0.31-4.88-0.88s-0.38-1.81,0-2S689.21,8,690.38,8s2.31,0.5,2.31,0.5
		S693.13,9.08,693.13,9.44z"/>
	<path class="st9" d="M693.94,0c0.42,2.97,3.09,5.92,5.06,8.88c0,0-1.15,2.58-0.81,2.81s2.09,0.1,2.38-0.38s-0.77-1.31,0-1.88
		s3.81-1.48,4.75-1.44s0.9,0.88,1.44,0.88s1-0.5,1-0.88s-1.42-1.21-2.25-1.44s-2.36,0.42-2.75,0s-1.58-1.08-1.5-1.63
		s1.21-1.23,1.63-1.56s2.21,0.04,2.31-0.38s-1.23-0.92-1.94-1.56s-2.41-1.35-2.41-1.35S694.87,0.07,693.94,0z"/>
	<path class="st7" d="M700.13,8.88c-0.75,0-3.68-2.17-4.31-3.44c-0.75-1-1.23-4.77-0.75-5.38c0.77-0.31,2.13-0.06,2.13-0.06
		s3.33,5.52,3.66,5.84s1.34,0.75,1.34,1.33s-0.67,0.58-1.34,0.83S700.88,8.88,700.13,8.88z"/>
	<polygon class="st9" points="891.25,0 904.19,4.88 904.19,-0.08 	"/>
	<path class="st9" d="M731.67,33.25c0,1.3,2.13,1.88,3.21,1.13c1.08-0.75,1.08-3.46,1.08-3.46S734.01,32.29,731.67,33.25z"/>
	<path class="st7" d="M747.33,9.4c0,0-0.12,1.21,0.08,1.13c0.2-0.08,0.65-1.21,0.46-1.46S747.33,9.4,747.33,9.4z"/>
	<path class="st8" d="M695.58,23.42c12.66,7.5,16.79-2.25,16.79-2.25S708.24,27.83,695.58,23.42z"/>
	<path class="st8" d="M713.17,26.33c2.33,0.5,8.08-1.42,8.08-1.42S717.44,25.67,713.17,26.33z"/>
	<path class="st8" d="M683.92,20c6.65,6.33,10.02-2.58,10.02-2.58S689.63,23.75,683.92,20z"/>
	<path class="st8" d="M671.46,12.69c3.66,9.11,5.57-3.97,5.57-3.97S674.8,19.17,671.46,12.69z"/>
	<path class="st8" d="M755.25,0.16h1.88c0,0,1.69,18.53-19.63,29.98C755.44,15.94,755.25,0.16,755.25,0.16z"/>
	<path class="st8" d="M755.83,59.11c0,0-19.15,37.04-15.96,35.17s13.56-27.81,16.75-27.63s10.81,3.94,9.25,2.13
		s-7.52-3.94-8.72-4.75c-0.79-0.53-1.03-2.63-0.78-3.5c0,0,1.46-3.88,1.79-5.63C758.5,53.16,755.83,59.11,755.83,59.11z"/>
	<path class="st8" d="M783.25,98.17c1.13,0,2.46,11.58,3.75,12.83c1.29,1.25,2.25,0.29,4.63,2.33c2.38,2.04-2.67,12.17,2.38,22.17
		c-2.38,3-6.52-4.21-7.14-5.57c-0.38-0.75-0.25-2.31-0.45-3.92c-0.27-2.24-0.92-4.34,0-5c1.23-0.72,1.92-0.58,1.92-2.21
		S780.25,98.75,783.25,98.17z"/>
	<path class="st8" d="M848.25,149.18c0.33-1.18,2.5,0.74,4.83,1.15c2.33,0.42,17.08-0.22,19.08-1.15c3.58-1.35,9.33-9.6,9.33-7.1
		s-7,8.58-8.58,9.08c-5.67,1.5-17.42,2.25-19.83,1.5c-2.42-0.75-5.25-3.49-5.25-3.49"/>
	<path class="st8" d="M885.08,0c2.17,0,9,0,9,0c0.12-0.4,9.26,3.63,17.32,7.77c13.35,4.23,19.47,10.73,22.27,14.15
		c2.1,2.18,3.51,4.29,3.75,5.83c0.58,3.83-19.83-13.5-19.83-13.5s-4.5-3.33-7.08-1.42c-1.92,2.86,3.79,6.17,5.19,13.42
		C917.08,33.5,896.75,6.33,885.08,0z"/>
	<path class="st8" d="M856.33,0c2.17-0.08,6,0,6,0c11.46,8.57,23.55,16.93,31.23,26.78c0.56,1.52,11.03,11.64,13.71,18.68
		c-0.28,0.65-1.58,0.73-2.82-0.5c-1.45-5.52-8.71-11.52-12.18-16.66C887.17,22.94,870.47,5.54,856.33,0z"/>
	<path class="st8" d="M959.56,123.92c8.47,0.2,6.7-25.42,3.77-27.26c1.66-10.52-4.64-39.45-4.91-38.16c0,0-1.92-7.08-1.92-4.33
		s0.83,5.08,0.83,5.08s4.42,28.18,3,35.17C961.5,115.5,952.61,123.75,959.56,123.92z"/>
	<path class="st8" d="M726.58,117.2c3.54-1.7,18.63,5.05,23.48,5.97c4.86,0.92,22.94,2.17,25.11,2c2.17-0.17-20.3-2.89-25.11-3.99
		s-18.69-7.93-23.48-7.01c-2.08,0-17.26,11.61-22.5,9s-7.74-7.36-8.07-6.67s4.55,9.61,8.07,10.33
		C710.45,128.15,725.44,117.56,726.58,117.2z"/>
	<path class="st8" d="M878.88,89.75c1.13-1.5-28.25-36.66-29.38-36.66s-5.29,6.28-6.33,9.78c-1.04,3.5,3.46-4.63,5.46-5.38
		c3.5-1,29.72,37.37,32.38,37.85C881,93,877.75,91.25,878.88,89.75z"/>
	<path class="st8" d="M913,86.5c0.83-4.67,7.25-11.83,8.67-19c1.42-7.17-2.25-27.5-1.83-31.17c0.42-3.67,5.5,24,5.5,24
		s0.67,5.25,3,6.33c13.75,2.83-0.08-24.67,5.79-21.17c1.71,2.44,4.14,1.3,3.3-3.67c0.4-2.75-3.13-10.14-0.9-11.83
		c4.14-0.75,6.97,27.5,6.97,27.5l1.17,12.83c0,0,1.79,36.06-2.83,37c-3.33,0.5,1.75-35.42-3.33-31c-2.58,3-1.34,19.5-2.59,23.46
		c-1.25,3.96-4.94-19.11-7.08-24.62c-2.31-5.96-4.37-4.44-5.5-3.17C923.33,72,912.17,91.17,913,86.5z"/>
	<path class="st8" d="M813.5,146.18c-1.01-1.69-6.64-5.11-10.68-6.42c-2.22-0.72-3.25-0.15-2.84,0.42c1.17,1.61,3.95,8.67,4.64,8.99
		c0.69,0.32,2.94,0,4.69-1.24c1.06-0.65,10.06,8.84,10.75,8.36S815.06,148.8,813.5,146.18z"/>
	<path class="st12" d="M741.63,135.63c-0.94,0.88,6.25,6.44,7.63,7.88s38.08,18.19,37.17,15.25c-0.45-1.43-12-6.04-22.68-11.44
		C752.5,141.63,742.11,135.18,741.63,135.63z"/>
	<path class="st12" d="M739.52,125.5c4.92,4.5,44.61,19.64,47.48,21.69s14.25,3.57,9,1.81c-14.94-5.63-31.52-17.22-31.98-17.75
		c-0.46-0.53,7.95-0.38,10.35,0s5.63,1.53,7.5,3.25s3.86,4.94,4.54,5.27c0.68,0.32,2.86,0.49,2.96,0s-4.77-6.63-6.79-7.36
		c-2.02-0.72-0.54-3.6-7.27-3.41c-18.69-0.28-36.31-5.41-36.31-4.63S739.1,124.88,739.52,125.5z"/>
	<path class="st12" d="M727.71,120.51c-0.56-1.47-9.34,8.59-21.48,8.17C707.47,131.06,727.13,125.75,727.71,120.51z"/>
	<path class="st12" d="M912.94,6.75c0,0,13.93,4.38,22.38,13.75c-0.56-5.13,6.31,0.25,6.31,0.25s6.94,5.63,6.94,5
		C942.38,18,918.5,5.81,916.19,3.94s-5.19-6.56-3.88-3.13S912.94,6.75,912.94,6.75z"/>
	<path class="st12" d="M942.38,14.14C932.79,3.67,925.5-0.04,925.5-0.04h6.21C931.71-0.04,942.88,13.61,942.38,14.14z"/>
	<path class="st8" d="M774.59,36.31c-0.14,0-0.04,0.71-0.03,1.01c0.01,0.34,16.93,8.99,17.44,8.99c0.37,0,1.69,0.15,1.69,0
		c0.02-0.17-0.1-0.23-0.38-0.15c-2.96-0.65-17.32-8.22-18.29-9.24C774.92,36.83,774.73,36.31,774.59,36.31z"/>
</g>
<g id="papi">
	<path class="st2" d="M349.67,175H479c65.33-48.51,61.67-121.66,21.33-175h-175.3C267.42,70.13,309.9,150.67,349.67,175z"/>
	<path class="st13" d="M336.02,149c-0.11-18.52,0-134.35,0-134.35S276.44,71.97,336.02,149z"/>
	<path class="st14" d="M521,21.14C603.51,149.56,414.57,134.29,331.39,175"/>
	<path class="st14" d="M556.33,27.69c-23.02,15.76-277.96,79.21-277.96,79.21"/>
	<line class="st14" x1="538.33" y1="153.75" x2="259.2" y2="-14.67"/>
	<path class="st15" d="M492.67,146.33c0,0,0.99-105.81,1.33-129.93C520.33,40.53,529.57,109.45,492.67,146.33z"/>
	<path class="st16" d="M449.71,31.23c0,0,2.71,6.6,4.38,7.35c3,4.33,27,5.5,22.64-14.82c0-1.04-3.16-5.64-3.16-5.64L449.71,31.23"/>
	<path class="st0" d="M3,94l-3-3V68.92c0,0,4.67-6.42,8.33-7.24c0.47-1.16,9.17-22.75,14.33-29.13s16.17-3.05,16.17-3.05
		S62.93,12.83,66.67,11C58.83,6.67,52.5,0,52.5,0h23.17l4.17,20L3,94z"/>
	<path class="st0" d="M260.28,170.91c0,0-95.78,6.59,2.08-13.91c3.52-2.5,37.42-38.36,42.91-51.25S352.98,55.43,355.25,56
		s-0.79,19.6-0.79,19.6l-32.38,31.9C300.41,129.77,266.77,169.9,260.28,170.91"/>
	<path class="st16" d="M302.57,110.66c0,1.34,3.82,12.09,4.51,12.09c0.69,0,6.33-7.88,8.05-9.63c-1.79-2.78-3.97-16.12-3.97-16.12
		S303.25,106.9,302.57,110.66z"/>
	<path class="st16" d="M336.02,71.58V89l18.61-12.65c0,0,2.91-19.91,0.62-20.35S336.02,71.58,336.02,71.58z"/>
	<path class="st17" d="M265.94,175c13.68-13.36,44.31-54.5,47.81-58.13s10.36-7.54,10.36-7.54L320.67,99l-0.33,0.61
		c0,0-5.59,6.81-7.21,9.85c-1.63,3.04-37.75,49.04-53.93,62.37c0.31,0.62,0.69,1.91,1.13,3.17C263,175,264.38,175,265.94,175z"/>
	<polygon class="st0" points="313.33,5.39 309.9,0 155,0 165,47.63 	"/>
	<path class="st18" d="M66,0c0,0,7,10,12,12C59,22,38,37,38,37s-4-1-6,0S18,49,12,66C6,75,0,91,0,91v66c0,0,0,3,2,4c0,7,2,14,2,14
		h259c0,0,0-2-2-2.78c0-4.22-0.45-6.94-3-8.22c-1,0-16,7-29,7c4-1,17-4,22-6c15-9,23-24,23-41c0,0,1-7-1-10c-1-2,0,0,0-4
		c2-2,0-4,0-4s1-1,0-3s0-3,0-3s2-3-1-6c0-2-1-3,0-5s11-8,11-8l5-1c1,1,18-5,20-5s16-7,16-7s15-7,24-23c7-14,1-27,1-27s-1,0-2,1
		c-2-11-10-15-10-15s0,0,2-1l-3-3c0,0-33,0-49,0c-15,8-18,16-18,16s-8-8-20-10s-50,4-55,7c-1,1-3,1-7,1s-7,5-11,6s-8,1-10,2
		c5-14,0-22,0-22l-45.83,0h-3.67H66z"/>
	<path class="st19" d="M114.67,145.67c0,0-8.88,7.21-8.33,11.33c0.54,4.12-1.67,18-1.67,18h-9c0,0-5.13-23.25-6.33-21.25
		c-1.21,2,2.33,21.25,2.33,21.25s-2.75,0-7.33,0c2.49-9.75,1.88-16.86,1.83-22c-0.04-5.14-8.42-31.13-10.17-28
		s6.54,22.83,5.33,29.67c-1.21,6.83,1.96,8.42,0.5,11.5c-1.46,3.08-8.67-4.75-12-9.08c-3.33-4.33-12.5-21.37-13.17-25.42
		c-0.67-4.04,0.13-22.54,0.83-26.42c-0.78-13.77-8.46-15-7.92-20.25c0.54-5.25,8.67,2.57,9.42,12.67
		c-0.63,2.96,1.21,25.25,1.67,31.17c0.46,5.92,9.37,24.92,12.17,24.92c6.67,4.25-7.96-38.63-0.5-40.58
		C77.63,112.88,87,142.13,90,142s-0.67-16.5-0.67-16.5s12.79-11.33,23.67-2.17S114.67,145.67,114.67,145.67z"/>
	<path class="st20" d="M116,138.92c-0.25-1.59-1.75-2.17-2.38-2.92s-1.25-2.73,0-4.13s-0.69-5.01-2.22-4.75
		c-1.53,0.25,1.59-5.25,1.59-5.25l14.38-10.63l40.38-19.5c0,0,11.14,0.51,9.45,1.59s-1.7,1.08-2.2,2.87
		c-0.5,1.79,0.25,7.29,0.13,9.04s-3.75,8.25-2.5,8.38s20.81-5.38,29.56-3.5c24.31,4.63,44.56,19.03,52.56,27.75
		c1.89,2.43,10.97,13.75,7.61,12.88c-3.36-0.88-5.48-9.13-7.11-7.5s5.38,10.5,3.13,10.5s-13.25-20.5-15.13-20.25s-1,2.25-1.38,3.83
		c-0.38,1.59-10.63-12.58-11.25-11.08s9.75,13.25,11.38,15.5s1.88,8.25,0.5,8.38s0.75-4.54-2.38-7.88s-16.75-17-18.75-15.38
		s-2,7.38-4.38,7.75S206.22,119,206.22,119l-8.22,1.88c0,0-4-4-5.63-3s-0.88-0.25,0.38,2.13s-8.75,0-8.75,0s6-6.63,3.38-6.88
		s-13.13,1.29-14.5,2.13s0.54,4.68-1.63,4.25s-9.71-2.85-11.25-2.25s-8.5,3.31-8.5,3.31l-12.13,6.32l-16.75,12.04
		c0,0-11.23,10.05-8.96,7.02C115.94,142.91,116.25,140.51,116,138.92z"/>
	<path class="st20" d="M258.33,34.83c2.69,0,3.19,15.32,8.21,21.67c5.43,6.87,13.97,10.72,13.96,11.83
		c-0.03,2.14-8.71-4.83-8.5-2.83s28.14,12.99,11.67,9.37c-18.17-5.12-25.13-21.73-27.33-28.96C258.54,39.5,256.2,35.83,258.33,34.83
		z"/>
	<path class="st19" d="M215.83,59.01c0,0,3.25-6.89,7.75-10.45c5.25-3.99,26-1.64,35,10.13c-0.17-1.47-4.94-8.81-4.94-8.81
		L254,36.65l2.17-7.49c0,0,7.17-8.42,11.5-10.17c0.3-1.31,0.83-2.07,1.33-3c-11.92-10.83-21.17-12.92-50.63-8.3
		c-0.96,0.39-2.54,6.01-2.54,6.01V59.01z"/>
	<path class="st20" d="M272.29,113.17c-2.87-2.75-41.96-24.83-41.96-24.83l-10.5-6.27l-2.96-4.81l-12.21-2.38L198,78.62L208.83,80
		l7,9l-3.17,2.75c0,0-0.79,2.25-1.98,3.75s-5.44-1.45-3.94,0.71c1.5,2.16,10.58,4.67,13.42,3.29c2.83-1.38-6.13-1.83-6.83-3.29
		c-0.71-1.46,4.79-2.6,6.17-4.09c1.38-1.49,1.33-3.12,1.33-3.12s23.79,10.5,42.27,23.5c1.78,1.42,1.78,1.42,1.78,3.58
		c0,2.17-1.08-1.42-3.85-0.71c-2.77,0.71-7.34-1.09-18.18-8.48c-10.84-7.39-15.83-7.26-15.51-5.73c0.67,3.21,2.88,0.9,2.07,4.37
		c-0.82,3.47-18.98-4.87-10.77,0.13c17.65,10.75,22.7,3.67,44.47,14.89c9.9,5.36,8.68,18.36,8.68,18.36s2.77-5.67,2.3-14.84
		C275.17,119.5,274.28,114.42,272.29,113.17z"/>
	<path class="st20" d="M84.33,29.63l7.04-8c0,0,4.25-5.13,1-4.25s-6.53,7.38-10.25,4.5s5.17-6.13,2.21-7.38
		c-2.96-1.25-5.93,2.63-10.57,5s-1.56-4.33-1.56-4.33l-19.52,11.9c0,0-3.17,3.57-2.05,4.89c1.12,1.32,10.74,0,10.74,0L84.33,29.63z"
		/>
	<path class="st20" d="M164,67.34c5.38,1.16,12.71-29.93,16.92-34.79c4.21-4.86,16-2.17,16-2.17l17.71-2.69v-6.94v-6.49l-17.71,2.18
		c0,0-10.62,1.04-12.58,4.8c-1.96,3.76-3.53,0.53-5.33-0.85C177.2,19,175.7,25,175.7,25l-24.86,19.11c0,0-14.71,8.26-23.83,30.22
		c0,2.42,15.54-4,18.33-5.42c5.5-19.54,16.79-27.77,23.29-34.5C175.13,27.69,162.72,58.95,164,67.34z"/>
	<path class="st21" d="M151.25,27.4c-0.14-0.01-1.6-0.19-1.01-1.59c8.01,5.31-9.87-19.44-21.31-22.34C125.13,2.47,117.5,0,117.5,0
		l-13.63,0c0,0-25.15,12.53-25.88,12C75.13,11.13,62.63,1,66,0c3,0,98.81,0,100,0s5.69,13.7-0.81,23.31
		C164.56,25.84,152.08,27.47,151.25,27.4z"/>
	<path class="st20" d="M99.83,34.42c0,0,1.97-3.38,3.58-3.83c1.62-0.46,11.58-1.42,13.92-1.33c2.33,0.08,3.75,1.42,6.42,1.25
		s11.08-1.74,11.92-2.42c0.83-0.68,7.92-0.4,7.92-0.4l3.5-2.19c0,0-1.58-2.5-2.33-4.67s2.33,4.25,3.33,4.42s0.92-0.33,1.83-0.25
		c0.92,0.08,0.92,2.07,0.92,2.07s-2,1.93-6.33,1.93s-18.33,4.18-20.17,4.28c-1.84,0.1-10.67-2.39-13.25-1.2
		C108.5,33.28,99.83,34.42,99.83,34.42z"/>
	<path class="st19" d="M270.17,40.5c4.38-15.9,51.32-38.6,47.91-35.19c-3.42,3.42-4.72,5.54-6.05,6.41
		c-3.08,1.05-31.04,17.72-36.66,27.83c-0.28,1.45,5.55,9.01,6.8,11.36c0.59-0.18,18.67-5.75,18.67-5.75s14.92-8.51,24.25-13.58
		c0,1.48-30.92,18.29-29.33,17.63c1.58-0.66-10.92,4.12-10.92,4.12h-3.08C281.75,53.34,269.91,42.25,270.17,40.5z"/>
	<path class="st22" d="M309.9,0c-5.27,1.06-7.23,5.39-7.23,5.39s-5.04-2.2-10.37-0.88s-20.08,18.07-20.08,18.07L273,33.5l-5.5-2.27
		L267.08,46c0,0-1.15,0.29-0.83,2.08c-1.37-21.4-7.31-12.21-7.04-22.24c3.15-3.91,7.75-6.91,8.46-6.84c0.4-1.5,1.33-3,1.33-3
		c3.56-6.98,10.56-12.13,18-16C287,0,305.81,0,309.9,0z"/>
	<path class="st20" d="M34.83,91.75C35.75,95,46.21,75.83,47.17,71.67c0.96-4.17-2.38-9.95-1.33-14.25c1.04-4.3,23.33-13.8,26-12.42
		c2.67,1.38,3.04,16.68,6.5,7.38c2.17-1.18,23.83-15.63,23.83-15.63s4.29-1.96,3.75-3.67c-0.54-1.71-6.58-0.67-6.58-0.67
		s-5.02-6.85-15.04-5.04c-1.85,1.88-6.98-1.31-8.62,1.72c0.58,0.84-2.72,0.19-2.72,0.19s-6.71,3.13-7.46,6.29
		c-0.75,3.17,5.92-2.17,6.08,0.25c0.17,2.42-29.75,14.75-30.42,19.33c-0.67,4.58,1.78,9.62,1.08,15.42
		C41.55,76.38,37.75,81.88,34.83,91.75z"/>
	<path class="st22" d="M349,18c0,0,4.33,9.34,1.82,18.65c-4.4,10.97-40.78,32.44-49.65,33.47c-8.87,1.04-18.4-1.48-12.16-2.89
		c40.49-7.07,54.57-24.11,57.24-31.32C347.96,30.56,349,18,349,18z"/>
	<path class="st20" d="M28.5,88.17c2,0,1.67-14.67,3.33-18.42c1.67-3.75-1.58-5.29,0-8.42l5.92-11.67L25.83,63.92
		c0,0,0.67,4.17,1.67,7.75C28.5,75.25,26.5,88.17,28.5,88.17z"/>
	<path class="st13" d="M187.38,34c-0.24-0.38-0.25-3.38,0-4.13s24.92-1.21,25.25-1.75s0-3.13,0-3.13s4.91-0.21,5.13,0
		s0.29,10.55,0,10.75s-4.17,0.46-4.75,0s0.13-3.38,0.13-3.38S187.61,34.38,187.38,34z"/>
	<path class="st13" d="M134,6c0,2-31,26-33,27s-3-1-3-1s-9-5-15-4c0-2,32-24,34-28c1,0,2,0,2,0S134,5,134,6z"/>
	<path class="st13" d="M78.41,27.69c0,0-3.33-0.06-5.41,1.31s-9.88-1.05-16,1c-6.46,1.26-14.51,5.74-14,6c0,0-11,11-26,30
		c-2,2-7,13-8,23c-1,3-6,19,0,39c4,7,5,20,13,34c1,2,3,7,10,13c5,0,20,0,24,0c-13-10-22-21-26-28c-2-1-10-23-12-32s0-18,4-39
		c5-15,9-17,24-32c9-8,20.5-10.94,24-12C76,30.5,78.41,27.69,78.41,27.69z"/>
	<path class="st13" d="M113,147c3-5,6-7,6-7s5-3,10,1c3,2,21,20,28,31c2-1,4,3,4,3s-15,0-16.5,0.13C142.3,173.06,126,152,122,150
		c-2-2-4-3-4-3S116,146,113,147z"/>
	<path class="st13" d="M138,128c1-3,8-6,10-7s5,0,7,0c7,2,27,26,27,54.16c-1-0.16-7-0.16-8.38,0C168,153,159,135,147,127
		c-2-1-5,0-5,0S142,127,138,128z"/>
	<path class="st23" d="M272,89c2-2,6-4,11-8c3.34-0.25,5-1,5-1c-2,0-6-1-6-1s-6.33-1.48-9-4c-1-1-6.85-5.65-8.12-7.5
		C264.63,68.35,271,81,272,89"/>
	<path class="st1" d="M264.48,66.59c0,0,6.95,13.2,13.89,17.77C277.88,84.76,272,89,272,89s-0.58-6.17-4.17-11.92
		C267.39,75.69,264.48,66.59,264.48,66.59z"/>
	<path class="st13" d="M272,89c-1-9-10-18-11-22c-1-2-7-9-8-22c-1-11,1-14,1-15s4-5,6-4c-3,3-5,9-5,11s0,4-1,8c0,6,11,21,11,23
		c3,8,5,12,5,12S271,82,272,89z"/>
	<path class="st13" d="M91.33,137.33c-1.58-1.52-4.46-11.27-7-17.83c6.92-3.63,19.98-12.25,23-11.5
		c-1.71-3.5-10.27-30.99-10.5-34.17c-0.12-0.95-0.02-2.21,0.67-2c2.44-2.4,15.85-5.38,17.83-6.17c1.98-0.79,11.54,3.65,14.67,3.33
		s9.17-5.67,9.17-5.67c2.96-1.8,5.22-0.48,7.67,0c0,0,4.67,2.85,8.33,2.92c6.46-0.75,8.96-3.15,11.83-2.92
		c2.91-1.09,7.58-2.04,8.7-1.5c3.05-0.46,2.8,11.1,4.97,15.83c1.02,2.9-1.35,11.15-2.5,15c-1.85,1.9-6.65,1.38-8,1.67
		c-1.35,0.29-4,3.08-6.33,5.25c-2.33,2.17-6.96,6.54-15.33,7.75c-2.56-0.15-12.38,3.73-19.83,7.67c-0.42,1,2.04,4.24,2,5.56
		c-0.04,1.32-5.73,1.38-12.67,8.28c-1.06,0.42-1.75-5.01-2.33-4.67C111.94,127.81,98.13,133.44,91.33,137.33z"/>
	<path class="st13" d="M84.33,72c-0.9-2.44,0.5-3.92-0.64-5.86c-3.26-0.76-6.8-2.53-9.03-5.3c-2.23-2.77,0.19-12.44,1.67-14.67
		c3.1-4.73,21.98-8.17,28.17-12.89c2.25-1.34,1.83,0,1.83,0s-1.27,2.72-1.67,8.55c-2.6-0.58-4.67-0.58-6.17-0.15
		s-3.85,1.96-4.33,2.98c-0.48,1.02-1.5,4.69-0.83,7.97c2.1,0.61,2.17,2.01,3.67,4.03c1.5,2.02,15.44-1.1,16.67-5.5
		c1.27-4.1-0.52-8.6,0-9.17c0.46-1.56,5.38,0.27,7.17-0.33c1.79-0.6,6.88-4.42,7.83-5.17c0.96-0.75,1.67-0.75,2,0c0.13,2.18,0,4,0,4
		s3.29,0.52,5-0.83c1.71-1.35,8-1.31,9.67-1.33c10.6-1.65,13.29-4.15,14.67-7c-0.69-5.15-4.83-2.5-4.83-2.5s-4.04,0.79-5.17,1.29
		s-1.39-1.9-1-2.12s1.19-1.13,9.5-2.16c2.5-0.09,4.94-2.65,7.5-3.84s10-2,10-2s1.73,2.56,1.03,5.53c-0.16,1.84-1.24,3.63-2.36,4.64
		c-1.12,1.01-8.17,6.71-12.83,11.5c-5.58,6.02-9.4,6.92-12.83,7c-3.44,0.08-7.21,1.42-9.67,2.5c-3.46,1.77-9.83,0.33-9.83,0.33
		s-3.96-1.79-6.67,1.67c-6.21,9.77-11.17,9.5-11.17,9.5c-2.17,0.09-4.23,1.46-8.67,2c0,0-9.04,2.56-9.83,3.67
		c-0.79,1.1-2.33,1.83-2.33,1.83S85.23,74.44,84.33,72z"/>
	<path class="st18" d="M123.06,96.13c-1.06-0.88-2.23-7.58-4.5-11.44c1.19-0.6,1.6,0.15,4.19-0.44s3.83-2.75,3.83-2.75
		s3.04-4.46,11.42-1.63c1.28,0.69,5.17,3.04,8.56,3.06s4.81-2.06,11.63-2.06c0.98,0.33,2.6,0.54,4.31-0.06
		c-2,1.06-6.58,4.69-12.5,7.94s-10.04,1.38-12.44,1.75S124.13,97,123.06,96.13z"/>
	<path class="st13" d="M189.13,170.88c-0.44-0.44-0.25-4.69,0-6.5s1.31-2.81,2.5-2.5s6.06-0.06,7.38-1.13
		c0.79-0.64,2.09-2.91,1.86-6.3c0.45-3.76-3.23-5.7-2.98-7.95c0.06-1.63,2.88-3.25,5.38-3.25s19.13,8.13,20,9.38s-0.13,8-1.13,9.25
		s-17.42,4.94-18.5,5.5s-3.94,1.63-5.25,1.38s-2.13-1.38-3.63-1.13S189.56,171.31,189.13,170.88z"/>
	<path class="st13" d="M193.38,144.88c-2.29,0-5.13-2.54-7.5-4.25c-2.47-3.92-6.88-15.25-6.88-15.25s0-0.79,0-3.25
		c1.25-4.38,5.13-3.13,5.13-3.13s5.63,3,5.75,4.38s-1.96,0.96-2,1.75s3.96,9.29,4.75,9.75s1.63,0,1.63,0s2.56-0.71,3.5-1.75
		c0.41-1.04,0-1.75,0-1.75s-3.67-6.21-4-7.38s0.25-1.63,0.25-1.63s2.47-1.47,3.4-1.47c1.46-0.35,2.35,0.47,2.35,0.47
		s3.92,7.56,5,8.5s3.88,0.5,3.88,0.5s1.38-0.29,2-0.75S210,126.5,210,126.5s-3.25-4.81-3.25-5.38s-2.63-0.57-2.63-0.57
		s-6.96-0.14-7-0.81c-1.04-1.92,4.13-3,4.13-3s4.31-1.5,6.88,0s9.79,8.58,10.25,11.75c0.29,1.98,0,5.5,0,5.5s-5.54,4.51-7.5,4.92
		s-5.38-1.59-5.38-1.59s-1.08,2.67-2.25,3.79S195.67,144.88,193.38,144.88z"/>
	<path class="st13" d="M195.13,85.63c0.31-0.63-0.05-3.8,0-5.25c-0.31-1.44-3.35-1.44-4.63-0.88c0,0-2.79,3-3.13,3.88s-0.5,7.69,0,9
		s2.75,3.23,3.88,3.84c1.94,0.27,9,0,9.75,0c1.56,0,4.5-3.71,4.88-4.46s-0.5-5.25,0-6.25s6-1.25,6.38-0.63s0.85,2.02,0,2.63
		s-1.81,1.19-2.13,1.5s-0.5,3.88-0.13,4.63s4.13,0,4.13,0s2.38-1.38,3-2.38c1.25-1.56,1.25-6.75,1.25-8.5s-2.38-2.68-3.63-3.25
		s-8.63-1.31-11.13-0.57c-1.44,1.32-2.99,3.09-3.63,3.94c-0.81,1.08,0.13,5.57,0.13,6.13c0,0.62-0.38,1-1.44,1s-4.94,0-4.94,0
		s-1.47-0.37-1.5-1s-0.25-2.13-0.13-2.75s1.25-0.75,1.25-0.75S194.81,86.25,195.13,85.63z"/>
	<path class="st13" d="M216.88,77.25c-0.46,0.38-30-2.58-30.25-3.13s-0.43-4.33,0-4.63s12.06-2,12.06-2s-12.23-1.71-12.06-1.5
		s-0.43-3.9,0-4.32s25.5-4.26,25.5-4.26s5.34-0.5,5.63,0s0.17,3.33,0,3.58s-13.25,2.5-13.25,2.5s12.88,0.17,13.25,0.5
		c0.38,0.33,0.38,3.46,0,3.88s-13,2.38-13,2.38s12.79,1.13,13,1.38S217.33,76.88,216.88,77.25z"/>
	<path class="st13" d="M191.88,58.38c-0.42,0.38-4.13,0.46-4.5,0s-0.25-9.75,0-10c12.63-0.46,25.46-1.17,30.38-2
		c0.28,0.25,0.29,10.12,0,10.37s-4.71,0.33-5,0.13s0.17-5.54,0-5.88s-7.67-0.54-7.88-0.13s0.04,4.17-0.13,4.5s-4.92,0.13-5.13-0.25
		s-0.08-3.29-0.25-3.63s-7.58-0.17-7.75,0.13S192.29,58,191.88,58.38z"/>
	<path class="st13" d="M187.38,38.13c-0.24,0.29-0.29,3.68,0,3.88s12.13-1.04,12.5-0.88s0.17,2.67,0,2.88s-12.26-0.33-12.5,0
		s0.17,3.25,0,3.63c9.54-1.27,26.69-1.27,30.38-2.13c0,0,0.25-2.79,0-3.25s-12.63,0.91-12.63,0.63s0.13-1.88,0.13-1.88
		s12.83-0.46,13.13-0.63s-0.29-3.13-0.63-3.63S187.61,37.83,187.38,38.13z"/>
	<path class="st13" d="M188.13,25.84c-0.25-0.51-0.21-3.38,0-3.72s25-3.25,25.25-3.5s0-1.99,0-1.99s4-0.53,4.38,0
		s1.06,7.99,0.63,8.36s-5.75,0-5.75,0s0.71-3.27,0.5-3.76S188.38,26.35,188.13,25.84z"/>
	<path class="st13" d="M188.13,17.25c-0.17,0.33,0,3.5,0,3.5s30.11-4.5,30.25-4.88s0.43-2.01,0-2.88s-21.41-0.87-22.29-0.87
		s-3.65,1.61-3.65,1.61l-4.06,0.24c0,0-0.51,0.47-0.26,0.64s4.92-0.13,5.13,0.13s-0.08,1.22-0.63,1.69S188.3,16.92,188.13,17.25z"/>
	<path class="st13" d="M218.38,7.7c0.23,0.37,0.43,2.68,0,3.05s-11.38,0-12.25-0.21c-0.88-0.21-3.56-0.09-9.21,1.33
		C208.38,8.06,217.94,7.25,218.38,7.7z"/>
	<path class="st13" d="M271.13,59c0.56,0.19,5.63-3.94,6-4.63s0.31-1.78,0-2c-3.03-1.31-6.84-0.62-7.25,0
		c-0.41,0.62,1.31,2.34,1.25,2.75s-1.19,0.97-1.25,1.38S270.56,58.81,271.13,59z"/>
	<path class="st13" d="M264.88,49.25c0-0.53,0.78-2.31,1.25-2.25s1.06,2.94,1.63,3s1.31-0.19,1.38-0.63s-0.97-1.5-0.63-1.75
		s1.91,0.81,2.38,0.88s1.13-0.44,1.13-0.88c0-1.41-3-2.44-2.13-3.5c4.38-0.22,3.84,2.88,3.63,3.5c-0.38,1.31-4.28,5.38-5,5.38
		S264.88,49.78,264.88,49.25z"/>
	<path class="st13" d="M318.38,54.5c0,0-2.06,2.47-1.38,2.92s5.44-0.27,5.75,0s0,0.95,0,0.95s0.21-1.02,0.76-1.32
		c0.55-0.3,4.49-1.99,4.62-2.55s-0.9-1.82-0.63-2.12c0.27-0.31,3.06-3.44,3.56-4.06s0.38-3.31-0.06-3.56s-2.25,1.81-2.75,1.63
		c-0.5-0.19-0.09-1.77-0.5-2.25s-1.88-2.75-2.38-2.75s-2.19,3.19-2.75,4s-0.13,3.69-0.63,3.75s-2-2.06-2.25-1.5s-2.19,0.06-2.75,0.5
		s0.56,2.13,0,2.75S318.38,54.5,318.38,54.5z"/>
	<path class="st13" d="M285.25,5.75C291.16,0.94,296.38,0,296.38,0l8.88,0c0,0-0.31,1.47,0,1.88s-4.03-0.81-4.13-0.63
		s3.41,1.34,2.88,1.63s0.09,3.38-0.13,3.5s-5.31-0.31-5.5,0s-2.16-2.01-2.25-1.75s-0.38,1.28-0.88,1.75s-0.75,2.41-1,2.63
		s-2.94-1.33-3.38-1.3s-1.28-1.35-1.5-1.82S285.25,6.22,285.25,5.75z"/>
	<path class="st18" d="M206.75,160.25c0.31-0.75,0.19-5.5,0.63-6.38s7.25,3.13,7.25,3.88S211.25,158.38,206.75,160.25z"/>
	<path class="st18" d="M272.31,53.56c-0.31,0.31,0.19,1.25,0.63,1.25s1.78-0.97,1.78-1.25S272.63,53.25,272.31,53.56z"/>
	<path class="st20" d="M38,37c-9.67,7.83-17.67,16.75-26,29c0,0,3.7-15.42,17.42-27.38C33.25,34.83,38,37,38,37z"/>
	<path class="st13" d="M68.38,0c0,0,2.02,0,3.62,0c2.25,7,7.13,10.29,7.13,11s-0.25,1-1.13,1C73,10.94,68.38,0,68.38,0z"/>
	<path class="st21" d="M13.13,175.16C7.5,166.88,1.25,145.75,1.75,144S0,140.88,0,140.88V157c0,0,0,3.88,2,4c0.07,2.73,0,9.25,2,14
		C5.5,175,9.75,175.16,13.13,175.16z"/>
	<path class="st19" d="M272,94c-1.75-2.25-6.35-7.52-18.63-14.25c-6.83-3.74-21.96-6.11-24.38-8.25c-3.16-2.81,12.4-1.13,22.88,3.37
		C266.38,80.5,271.13,88.27,272,89C271,91.75,273,92.75,272,94z"/>
	<path class="st19" d="M273,103c-11.98-13-21-15.58-23.42-17.42c-2.42-1.83,3.67-1.9,9.92,1.92c5.53,3.38,10.99,8.35,13.5,12.5
		C273,100.5,272.29,101.25,273,103z"/>
	<path class="st24" d="M275.99,40.53c0,0-3.12-2.42-2.3-3.73c0.82-1.32,5.99-5.36,5.99-5.36s3.22-0.66,3.07,0.37
		S275.99,40.53,275.99,40.53z"/>
	<path class="st24" d="M285.63,49.99c0,0.79-1.17,3.12-0.42,3.12s7.5-3.24,7.83-4.2C293.38,47.95,285.63,49.2,285.63,49.99z"/>
	<path class="st24" d="M298.83,46.38c-0.58-0.29,0.22-1.46,0.81-2.15c0.58-0.69,6.44-3.47,8.28-3.47c0.75,0.67,1.83-0.14,1.25,0.63
		C308.58,42.14,299.42,46.67,298.83,46.38z"/>
	<path class="st24" d="M318.88,35.56c0,0-0.38-1.01,0.86-2.07c1.24-1.06,2.97-1.85,6.32-2.93
		C325.39,32.67,318.88,35.56,318.88,35.56z"/>
	<path class="st24" d="M308.14,15.14c-2.05,1.95-1.64-1.01-1.64-2.14s6.83-3.17,6.83-2.5C311.04,13.39,310.19,13.19,308.14,15.14z"
		/>
	<path class="st24" d="M297.62,20.49c0,0-9.18,6.95-9.75,6.85c-0.57-0.1-1.08-2.03-0.84-2.93S297.62,20.49,297.62,20.49z"/>
	<path class="st22" d="M337,4c-3.25-1.43-12.71,0.34-11.92,1.63c0.49,0.8,8.39-0.41,10.26,0.09s7.97,5.97,8.72,12.53
		c-0.25,1.13-8.94,7.59-8.94,7.59S344.81,21.5,347,19C345.19,7.88,337,4,337,4z"/>
	<path class="st20" d="M258,164c-10.18,3.56-18.33,6.91-29,7c-2.25,1.08-4.5,4-4.5,4H263c0,0,0.1-2.42-2-2.78
		C261.5,171.25,261.98,164.96,258,164z"/>
	<path class="st25" d="M351.39,75.6c0,0,3.27-2.45,3.27,1.3c0,2.19-29.81,32.43-30.55,32.43c-0.74,0-9.9,0.75-9.9-1.64
		C321.75,91.75,351.39,75.6,351.39,75.6z"/>
	<path class="st6" d="M342.5,82.06c-22.63,15.44-25.66,22.44-27.13,25.56c-4.22,5.69-20.47,26.99-53.02,63.29
		c29.4-29.89,50.55-57.91,54.64-64.02C317.29,105.41,323.37,97.37,342.5,82.06z"/>
	<path class="st26" d="M351.39,77.08c-4.14,9.92-27.48,30.25-29.31,30.42c-1.83,0.17-3.55-1.92-3.17,0c0.39,1.92,5,1.17,5,1.17
		s26.94-26.5,27.69-28C353.85,77.8,352.95,76.37,351.39,77.08z"/>
	<path class="st20" d="M66.44,175c-21.94-14.94-35.31-43.88-33.81-34.13C35.75,156.63,60.44,175,60.44,175S64.75,175,66.44,175z"/>
	<path class="st20" d="M96.75,81c0,0,7.44,23.44,8.13,25c-1.88,0.13-15.94,9.75-16.75,9.38s0.75-5.5,1.5-7.13s3.88,0.94,4.88-0.38
		s-1.25-7.3-0.13-8.37c1.13-1.07,3.25,4.62,4,3.75s-5.81-26.88-4.88-28.38S96.75,81,96.75,81z"/>
	<path class="st20" d="M38,136.63c0,0-8.42-9.13-9.63-31.38c0.29-1.83-0.71-1.84,0.63-2.88c4.66,11.6-0.33,18.13,12.75,37.75
		C40.5,140.13,38,136.63,38,136.63z"/>
	<path class="st20" d="M153,25.87l3.33-0.54c0,0-21.98-25.33-26.42-25.33C125.48,0,122,0,122,0C138.75,2.83,153,23.4,153,25.87z"/>
	<path class="st20" d="M79.83,10.5c-0.27-0.63,21.79-10.38,22.29-10.38S80.1,11.13,79.83,10.5z"/>
	<path class="st27" d="M147.56,46.38c2.88-4.24,27.58-22.85,28.14-22.33c0.55,0.52,0.57,2.32,0,3.36
		c-0.57,1.04-12.7,10.22-18.36,17.16C152.56,47.13,152.31,45,147.56,46.38z"/>
	<path class="st27" d="M128.17,70.13c-1.32,0.75-7.56,16.88-1.04,9.64c0.39-1.64,7.08-2.81,12.17-0.83c0.42,0,0.57,0,0.88-0.56
		c0.4,0.14,4.91-12.29,4.67-13.21c-0.25-0.96-2.96-2.05-7.83,2.33S128.17,70.13,128.17,70.13z"/>
	<path class="st27" d="M122.92,98.58c-1.08,1.5-3.95,18.97-5.89,20.32c-1.94,1.35-3.77,3.85-3.02,3.85s2.3-2.19,3.02-2.19
		c0.73,0,0.59,4.94,1.28,4.94c0.69,0,6.19-4,8.69-4.94c0.75-1.14-1.81-4.03-1.67-5.17c-0.08-1.64,4.13-5.3,19.51-9.51
		c2.35-0.54,4.09-0.5,6.34-1.66c2.66-1.32-5.61-2.87-10.37-12.09c-1.25-0.25-3.42,0.4-4.47,0.68
		C134.49,93.29,126.33,98.08,122.92,98.58z"/>
	<path class="st27" d="M168.31,63.6c-0.52,0.26-2.75,14.64-3.15,16.06c-0.42,1.51-1.4-14.55-1.14-14.84
		C165.95,63.78,166.69,64.6,168.31,63.6z"/>
	<path class="st27" d="M75,59.01c0.67,3.66,1.13-9.88,7.17-11.38c6.04-1.5,8.46-1.08,9.83-3.06s6.33-4.98,9-4.9
		c2.67,0.08,3.88-4.08,3.88-4.83c-1.63-0.28-5.45,2.3-15.57,5.83c-4.55,1.27-9.8,3.96-11.47,5.71C76.17,48.13,74.17,52,75,59.01z"/>
	<path class="st27" d="M50.34,171.84c-4.7-0.11-21.34-18.83-23.55-27.17c0,0-0.29-0.67-0.67,0.21
		c-3.41,7.06,18.73,24.29,19.17,30.12c-1.92,0-3.04,0-4.89,0c-2.05-2.03-5.54-5.04-9.12-6.16c-4.59-1.77-8.84-19.11-10.69-19.92
		c-1.85-0.8-3.48-11.53-4.35-10.02C15.19,154.44,32.9,175,32.9,175h19.68C52.58,175,52.09,173.52,50.34,171.84z"/>
	<path class="st20" d="M123.13,85.13c-1.38,0.5-0.81,9.91,0.31,9.91s12.06-6.22,13.31-6.09s1.69,1.75,2.56,0.63
		c-1.31-3.38,1.5-6.55-0.5-7.93c-7.63-3.19-11.81,1.25-11.81,1.25S124.46,85.52,123.13,85.13z"/>
</g>
<g id="puck">
	<path class="st28" d="M461.79,12c-18.13,0-17.63,26.58,0,26.58C480.54,38.58,479.91,12,461.79,12z"/>
	<path class="st29" d="M461.79,35.69c13.38,0,16-21.81-0.22-22.13C445.1,13.56,446.79,35.69,461.79,35.69z"/>
	<path class="st30" d="M461.6,33.56c15.38-0.31,11.63-20-0.27-18.94C449.1,13.56,446.23,33.87,461.6,33.56z"/>
</g>
</svg>
