<svg id="logo_shape" data-name="logo shape" xmlns="http://www.w3.org/2000/svg" viewBox="0 0 843.55 1311"><defs><style>.cls-1{fill:#102c69;}.cls-2{fill:#153877;}.cls-3{fill:#05183a;}</style></defs><title>bglogocutoff</title><path id="logo_shape-2" data-name="logo shape" class="cls-1" d="M588.63,1311c-47.25-45.92-54.23-130.56-54.23-130.56S410,1247,326.1,1245.45c-7.68.3,32.22-72.67,32.22-72.67s-72.76,24.64-122.07,17.39c9.41-14.5,18.8-38.66,23.87-57.29-9.77,7.75-108.34,25.87-129.46,22.8,62.81-92.38,115.42-135.38,115.42-135.38s-50.88-24.66-95.47-58.43c49.28-36.32,129.16-58.42,129.16-58.42s-62.27-9.31-101.08-32.77c16.51-15.21,37.91-39.91,37.91-39.91s-44.87-14-105.3-65.55c2.93-11.24,42.12-41.32,42.12-41.32S79,671.81,39.71,625.58C46.16,617.44,72,604.2,72,604.2S-6.22,513.29.4,510.15c33.26-15.79,60-13.4,51.94-11.4,0,0-33.8-96.73-25.27-102.6,25-1,88.06,32.51,97.58,36.28s8.35-56.65,24.78-60.5c41.07,20.77,75.11,64.26,78.4,76.95,15.48-1.81,20.26-28.62,26.67-28.5,4.07-9.56,149.17,158.63,155.83,152.47s-54.75-141.08-54.75-141.08l32.29-2.84L330.31,285l73,14.25,8.43-124,51.94,28.5L476.31,91.2l39.31,17.1S571.89,0,575.41,0s53.23,111.94,53.23,111.94c16-5.61,29.51-24.65,38.6-23.59,17.31,21.6,14.32,112.89,14.32,112.89s40.54-26,51.67-24.54c10,23.88,7,125.4,7,125.4s57-19.36,74.4-17.1c-6.88,47.28-60.37,141.07-60.37,141.07-3.95.75,7.34-.18,32.29,4.28C787.82,441,728,572.53,735,571.43c17.4-4.2,108.26-107.85,108.26-107.85v723.15l-56.7-15.89S816,1224,817.46,1248.17c-168.11-31.42-205.67-73.71-217.6-68.27-15.06,26,33.69,88.35,33.69,88.35S616.49,1289.25,588.63,1311Z"/><path id="Shadows_2" data-name="Shadows 2" class="cls-2" d="M843.27,479.74S749.71,583.66,725.35,585c-3.2-13.18,44.8-129.6,49.07-145-12.8-4.39-30.93,0-30.93-4.39,13.86-28.56,55.47-114.23,54.4-135.09-3.2-7.69-64,15.37-64,15.37s0-124.11-5.34-126.3c-13.86,0-54.4,30.75-54.4,30.75s-2.13-105.44-9.6-115.32-26.67,26.36-36.27,26.36S578.15,17.18,575,17.18s-58.14,106-58.14,106-20.8-12.63-32.53-17c-6.4,4.4-10.67,113.13-10.67,113.13s25.6-46.13,52.27-61.51,39.47-2.19,39.47-2.19S571.75,93,577.08,93c3.2,6.59,10.67,49.43,10.67,93.36s-7.47,128.5,1.07,131.8,54.4-38.44,58.66-31.85c-2.13,25.26-53.33,57.11-60.8,67-4.26,9.88-7.46,145-1.06,147.17,10.66,4.39,93.87-103.24,109.87-113.13,9.6,56-105.61,147.18-105.61,147.18S604.82,551,588.82,585c90.67-145,138.67-138.39,171.73-136.19-34.13,84.57-48,137.29-53.33,147.17s-3.79,17-29.87,50.53c81.43-65.28,165.85-18.26,165.85-18.26Z"/><path id="Shadows_3" data-name="Shadows 3" class="cls-2" d="M600.55,1059.48c35.2-11,117.34,56,183.47,35.15,20-6.4,46.45-17.49,59.25-12.16v2.58s-20,2-17.65,5.19c5-2.15,16,.55,17.93,3.76l-.28,13.07a58.84,58.84,0,0,0-7-4.75c-17.07-5.49-82.14,23.06-142.94,5.49-11.73-5.49-123.73-48.33-148.27,0-8.53-8.79-62.93-31.85-96,0-27.74-5.49-78.94-5.49-128,27.46-20.27,12.08-30.94,2.2-53.34,36.24-2.13-8.78,7.47-35.14,7.47-35.14s-12.8,34.05-28.8,49.42c7.46-11,20.26-51.62,18.13-56-7.47-4.4-42.67,16.47-112,19.77,0-5.49,83.2-8.79,101.33-45,18.14-7.69,53.34,20.86,65.07,13.18,52.27-30.76,123.74-27.46,123.74-27.46s32-35.15,100.27-6.59c10.67-46.13,92.8-43.93,118.4-41.74,28.8,2.2,51.2,13.18,74.67,36.25C691.22,1055.09,633.62,1045.21,600.55,1059.48Z"/><path id="shadow_4" data-name="shadow 4" class="cls-2" d="M544,1161.63c-7.46-8.79-7.46-35.15-7.46-35.15s-45.87-26.36-83.2,1.1c-23.47,20.87-64,35.15-64,42.84C420.28,1182.5,479,1103.42,544,1161.63Z"/><path id="shadow_5" data-name="shadow 5" class="cls-2" d="M577.62,1186.34c-15.47-1.65-30.41-26.91-26.14-43.38,25.6-67,129.07,20.87,184.54,35.14-32.38-4.38-75.15-28.27-110.45-37.34C573.88,1125.38,547.21,1147.35,577.62,1186.34Z"/><path id="shadows_1" data-name="shadows 1" class="cls-2" d="M403.21,585c4.27,0-138.67-152.67-146.14-152.67s-18.13,34.05-31.46,31.31c-10.14-20.32-60.27-76.34-73.07-76.34C144,382.92,137.6,449.92,128,445.52c-8.53-6.59-86.4-38.44-91.73-37.34C32,418.07,64,499.34,64,499.34s33.07-5.49,49.07,7.69C92.8,480.67,83.2,464.2,83.2,464.2s33.07,16.47,56.54,43.93c6.4-6.59,24.53,4.39,24.53,4.39s-12.8-27.46-8.53-29.65c7.46-3.3,25.6,20.87,29.87,28.55s-3.21,14.28,1.06,12.09,27.74,32.94,27.74,32.94-9.6-18.67-4.27-20.86,23.47,20.86,23.47,20.86S305.07,556.45,403.21,585Z"/><path id="shadow_7" data-name="shadow 7" class="cls-2" d="M52.27,634.44c48,48.32,100.27,85.66,109.87,90.06,2.13,5.49-30.94,24.16-43.74,41.73,24.54,24.17,80,56,103.47,64.8,2.14,4.4-33.06,35.15-32,39.54,6.4,11,101.87,31.31,102.94,34.6-56.54,22-128.54,53.27-127.47,59.86s73.6,46.13,73.6,46.13-42.67-31.85-42.67-45,54.4-31.85,112-60.41c2.13-8.79-106.67-24.16-103.47-36.24s32-33,33.06-40.64c-41.6-17.58-97.07-56-97.07-63.7s33.6-25.82,36.27-38.45C174.94,709.12,146.14,705.83,52.27,634.44Z"/><path id="shadow_8" data-name="shadow 8" class="cls-2" d="M103.47,566.34c29.87,43.93,89.6,41.74,97.6,47.78s27.2,31.3,33.6,43.38c23.47,0,59.74,31.85,59.74,31.85s-33.37-33.7-40.54-40.64c-6.66-6.44-18.13-5.49-19.2-7.68s-22.4-36.25-29.86-37.35C182.4,602.58,141.87,600.39,103.47,566.34Z"/><path id="shadow_9" data-name="shadow 9" class="cls-2" d="M601.62,1270.36c-16,5.49-35.2-7.69-32.54-60.95C579.75,1266.52,601.08,1269.81,601.62,1270.36Z"/><path id="shadow_10" data-name="shadow 10" class="cls-2" d="M517.24,1020.06s-33.66-33.69-66-44.07-89.92,18.64-89.92,18.64,55.91-10.39,82.29-7.83S517.24,1020.06,517.24,1020.06Z"/><path id="Shadow_11" data-name="Shadow 11" class="cls-2" d="M604.41,950.69c-2,2.56,3.57-18.83,11-25s37.79,1.9,37.79,1.9C627,928.63,613.09,928.21,604.41,950.69Z"/><path id="L-white_vein" data-name="L-white vein" class="cls-3" d="M142.39,585.8c-16.43-9.66-29.34-15.7-28.16-18.12,7,4.83,34,15.71,48.11,19.33s32.86,0,32.86,0S89.58,477.06,94.28,474.64c41.07,37.46,79.8,78.54,79.8,78.54V532.64c0-12.08,0-14.5-9.39-37.46,1.17,0,11.73,16.92,11.73,16.92,3.52,7.25,7,24.16,4.7,48.33,11,11,35.2,32.62,54,54.37a43.15,43.15,0,0,0,1.17-16.91c0-20.54-18.77-52-18.77-52s17.6,25.37,21.12,38.66c5.87,21.75,3.52,36.25,3.52,39.88s11.73,10.87,11.73,13.29a30.57,30.57,0,0,0-11.73,0s-29.34-39.87-36.38-42.29C205.76,595.47,165.86,597.89,142.39,585.8Z"/><path id="T-white_vein" data-name="T-white vein" class="cls-3" d="M567.2,561.64c3.52-2.42,9.39,0,11.74,0,2.34-2.42,0-29,0-29s108-95.46,108-125.66c-44.6,68.87-108,111.16-108,111.16l-1.18-175.2s28.17-7.25,61-48.34c-7,6-50.46,41.09-58.67,37.46-2.35-2.42,2.35-189.7-3.52-200.58-3.52,24.17-1.18,131.71-4.7,130.5s-7-4.83-50.46-64c14.09,38.67,50.46,76.12,50.46,76.12L567.2,392.48s-10.56-3.63-61-62.84c29.34,58,61,73.71,61,73.71v101.5S537.86,500,454.54,396.1C503.83,490.35,566,520.56,566,520.56S563.68,559.22,567.2,561.64Z"/><path id="R-white_vein" data-name="R-white vein" class="cls-3" d="M542.13,966.15c1.72,1.7,4.34,7.63,7.71,7.67,1.63-3.35,5-5,6.62-6.66,2.49-2.49-3.06-31.18-2.32-37.07,0,0,31.57-24.88,42.52-73.57-31.88,56-44.46,58.39-44.46,58.39s-1.64-144-5.24-157.49c-3.93,16-3.34,99.3-2.25,113.63-1.69,0-11.05-6-19.19-14.13s-15.88-17.45-20.27-28.44c.14,8.42,1.11,16,8,22.82,8.62,11.89,31.69,31.53,31.69,31.53S540.42,964.44,542.13,966.15Z"/><path id="B-white_vein" data-name="B-white vein" class="cls-3" d="M674,1123.49c7,4.84,57.5,37.46,59.85,31.42-15.26-8.46-39.9-29-39.9-29s66.89,14.5,106.79-10.87c-86.84,10.87-106.79,0-106.79,0s-57.5-19.34-97.4-20.54-49.29,21.74-49.29,21.74-23.47-16.91-52.81-19.33-42.24,16.92-42.24,16.92-29.34-4.84-44.6-3.63c-43.42,4.84-68.06,19.34-68.06,21.75a479.07,479.07,0,0,1,66.89-14.5c9.39-1.21,27-1.21,31.68,2.42,0,7.25-29.33,23-45.76,27.79,10.56,6,43.42-13.29,49.28-18.12,3.53-2.42,22.3-23,49.29-23s52.22,16.31,52.22,16.31-1.76,6.65.59,16.31C571.89,1078.79,667,1118.66,674,1123.49Z"/><path class="cls-2" d="M397.67,843.17c-4.26-.18-126,1.44-141.33-16.77,106.37,9.84,134.42,2.2,134.42,2.2s-102.4-113-100.14-116.21,77.32,71.31,77.32,71.31,1.78-18.62-3-61.68c6.39.26,13.24,72,13.24,72L446,862.73c5.08-8.87-11.57-59.83-8-69.57s26.63,84.62,26.63,84.62,7.08,10.19,15.52,12.73C519.48,926.59,407.18,845.76,397.67,843.17Z"/><path class="cls-2" d="M657.82,869.15s107.12-7.35,119.34-17.46c-38.43,0-106.83,8.59-105.15,3.18s74.58-76.36,74.58-76.36,74.76-19.32,75-26.5a257.74,257.74,0,0,1-61.86,12.38s88.68-85.22,83-89.39c-11.57-8.55-133.46,117.77-132.24,119.15-4-4.6-4.76-34.33-5-95-11.09,8.45-8.59,89.95-5.21,102.82-2.25,8.08-80.88,88.75-99,102.12C601.23,912.85,657.82,869.15,657.82,869.15Z"/><path class="cls-2" d="M602.48,821.23c-7.91-11.47,41.4-109.76,37.19-72.6C617.16,788,610.38,832.7,602.48,821.23Z"/><path class="cls-2" d="M526.57,656.4C521.23,668.48,477.5,538.88,473.23,551,479.63,540,531.9,644.32,526.57,656.4Z"/></svg>