<svg id="logo_shape" data-name="logo shape" xmlns="http://www.w3.org/2000/svg" viewBox="0 0 1073 1193.64"><defs><style>.cls-1{fill:#153877;}.cls-2{fill:#102c69;}.cls-3{fill:#05183a;}</style></defs><title>bglogo</title><path id="logo_shape-2" data-name="logo shape" class="cls-1" d="M974.82,1135C930.53,1093.2,924,1016.13,924,1016.13s-116.67,60.56-195.28,59.19c-7.2.27,30.2-66.17,30.2-66.17S690.7,1031.59,644.48,1025c8.82-13.2,17.62-35.21,22.37-52.17-9.15,7.06-101.56,23.56-121.36,20.76,58.88-84.11,108.2-123.26,108.2-123.26S606,847.87,564.2,817.13c46.19-33.07,121.08-53.2,121.08-53.2s-58.38-8.48-94.76-29.84c15.47-13.84,35.53-36.33,35.53-36.33S584,685.05,527.34,638.08c2.74-10.24,39.49-37.62,39.49-37.62S497.08,553,460.22,510.93c6.06-7.41,30.27-19.46,30.27-19.46s-73.32-82.77-67.12-85.63c31.19-14.37,56.22-12.2,48.7-10.38,0,0-31.69-88.07-23.69-93.41,23.4-.95,82.55,29.59,91.48,33s7.83-51.57,23.23-55.08c38.5,18.91,70.41,58.52,73.49,70.06,14.52-1.64,19-26.05,25-25.95,3.81-8.7,139.84,144.44,146.09,138.83s-51.33-128.45-51.33-128.45l30.27-2.59-54-131,68.44,13L809,100.94l48.7,26,11.84-102.5L906.38,40s52.76-98.6,56.06-98.6,49.9,101.92,49.9,101.92c15-5.11,27.66-22.45,36.18-21.48C1064.75,41.47,1062,124.58,1062,124.58s38-23.7,48.43-22.34c9.38,21.74,6.58,114.17,6.58,114.17s53.4-17.62,69.75-15.56c-6.45,43-56.59,128.44-56.59,128.44-3.71.68,6.88-.17,30.27,3.89,1.17,9.73-54.94,129.46-48.34,128.45,23.11-5.41,106.72-111,143.1-137.53,8.72-1,23.69,24.65,23.69,24.65s49.94-54.25,80.28-70.06c10.36,21.31,21.06,58.39,21.06,58.39s28.91-17.28,92.13-36.33c-13.71,65.26-29,92.12-29,92.12s31.74-1.56,52.64,14.27c-16.5,20.48-56.11,76.58-67.12,80.44,0,4.94,15.41,15.94,28.95,25.95-48.74,54.9-106.6,84.33-106.6,84.33s31.46,22.28,39.48,40.22c-66.33,58-97.39,58.39-97.39,58.39s20.06,18.28,35.53,36.32c-7.77,15-94.76,31.14-94.76,31.14s104.59,36.63,115.82,51.9c-1.33,15.53-86.86,53.2-86.86,53.2s107.54,96.55,110.55,123.25c-69,1.9-115.23-22.3-125-20.1,5.4,19.8,23,33,19.74,56.11-38.54,2.2-107.92-20.91-107.92-20.91s27.57,48.41,29,70.41c-157.61-28.6-192.81-67.1-204-62.15-14.11,23.65,31.59,80.44,31.59,80.44S1000.94,1115.2,974.82,1135Z" transform="translate(-423 58.64)"/><path id="Shadows_2" data-name="Shadows 2" class="cls-2" d="M1239.67,518c9.33,4-.67,19,6.33,20.94,6-4.94,30,1.06,28-10.94-7,0-17-1-22,2-3-4,.5-13.5-1.5-17.5,2-10.51,41.5-38.5,53.5-48.5,1.43-6.79-62,16-71.74-2.71C1219,422,1258,367,1257,344c-7-18-117,128-154,130-3-12,42-118,46-132-12-4-29,0-29-4,13-26,52-104,51-123-3-7-60,14-60,14s0-113-5-115c-13,0-51,28-51,28s-2-96-9-105-25,24-34,24S965-43,962-43s-54.5,96.5-54.5,96.5S888,42,877,38c-6,4-10,103-10,103s24-42,49-56,37-2,37-2,6-57,11-57c3,6,10,45,10,85s-7,117,1,120,51-35,55-29c-2,23-50,52-57,61-4,9-7,132-1,134,10,4,88-94,103-103,9,51-99,134-99,134s14,15-1,46c85-132,130-126,161-124-32,77-45,125-50,134s-3.55,15.45-28,46C1093.45,503.45,1127,497,1239.67,518Z" transform="translate(-423 58.64)"/><path id="Shadows_3" data-name="Shadows 3" class="cls-2" d="M986,906c33-10,110,51,172,32,37-24,60-9,60-9s-24,1-21,5c18-5,37,24,38,22,8-13-25-48-20-63s95,38,95,38-66-54-61.5-65.5C1262,847,1300,849,1300,849s-24,13-43,21c5,5,58,53,76,77-15-5-103-44-111-48,15,9,26,45,24,62-3-3,36,9,74.5,26.5C1300,987,1247,964,1244,971c-1,12,28,49,21,54-2-13-40-72-58-80-16-5-77,21-134,5-11-5-116-44-139,0-8-8-59-29-90,0-26-5-74-5-120,25-19,11-29,2-50,33-2-8,7-32,7-32s-12,31-27,45c7-10,19-47,17-51-7-4-40,15-105,18,0-5,78-8,95-41,17-7,50,19,61,12,49-28,116-25,116-25s30-32,94-6c10-42,87-40,111-38,27,2,48,12,70,33C1071,902,1017,893,986,906Z" transform="translate(-423 58.64)"/><path id="shadow_4" data-name="shadow 4" class="cls-2" d="M933,999c-7-8-7-32-7-32s-43-24-78,1c-22,19-60,32-60,39C817,1018,872,946,933,999Z" transform="translate(-423 58.64)"/><path id="shadow_5" data-name="shadow 5" class="cls-2" d="M964.5,1021.5C950,1020,936,997,940,982c24-61,121,19,173,32-30.36-4-70.45-25.74-103.54-34C961,966,936,986,964.5,1021.5Z" transform="translate(-423 58.64)"/><path id="shadows_1" data-name="shadows 1" class="cls-2" d="M801,474c4,0-130-139-137-139s-17,31-29.5,28.5C625,345,578,294,566,294c-8-4-14,57-23,53-8-6-81-35-86-34-4,9,26,83,26,83s31-5,46,7c-19-24-28-39-28-39s31,15,53,40c6-6,23,4,23,4s-12-25-8-27c7-3,24,19,28,26s-3,13,1,11,26,30,26,30-9-17-4-19,22,19,22,19S709,448,801,474Z" transform="translate(-423 58.64)"/><path id="shadow_6" data-name="shadow 6" class="cls-2" d="M1465,310c4,0-30,86-27,88,7,7,26-2,48,12,4,7-54,77-64,77s24,25,27,30-84,73-109,81c17,14,39,32,38,38-32,39-95,59-95,59s30,27,31,37-98,34-98,34,79-27,80-37-32-48-30-41,93-39,89-55-17-28-30-37c84-50,105-67,103-79s-51-27-77-26c20-6,25.5-19.5,25.5-19.5S1324,486,1312,479c17-13,88-86,88-86s-47,59-49,70,68,2,82-4,39-35,36-47c-1-3-41,1-42-9C1446,369,1462,321,1465,310Z" transform="translate(-423 58.64)"/><path id="shadow_7" data-name="shadow 7" class="cls-2" d="M472,519c45,44,94,78,103,82,2,5-29,22-41,38,23,22,75,51,97,59,2,4-31,32-30,36,6,10,95.5,28.5,96.5,31.5C644.5,785.5,577,814,578,820s69,42,69,42-40-29-40-41,51-29,105-55c2-8-100-22-97-33s30-30,31-37c-39-16-91-51-91-58s31.5-23.5,34-35C587,587,560,584,472,519Z" transform="translate(-423 58.64)"/><path id="shadow_8" data-name="shadow 8" class="cls-2" d="M520,457c28,40,84,38,91.5,43.5S637,529,643,540c22,0,56,29,56,29s-31.28-30.68-38-37c-6.24-5.87-17-5-18-7s-21-33-28-34C594,490,556,488,520,457Z" transform="translate(-423 58.64)"/><path id="shadow_9" data-name="shadow 9" class="cls-2" d="M987,1098c-15,5-33-7-30.5-55.5C966.5,1094.5,986.5,1097.5,987,1098Z" transform="translate(-423 58.64)"/><path id="shadow_10" data-name="shadow 10" class="cls-2" d="M907.9,870.1S876.34,839.43,846,830s-84.29,17-84.29,17,52.41-9.46,77.14-7.13S907.9,870.1,907.9,870.1Z" transform="translate(-423 58.64)"/><path id="Shadow_11" data-name="Shadow 11" class="cls-2" d="M989.62,806.94c-1.89,2.34,3.35-17.14,10.28-22.78s35.43,1.73,35.43,1.73C1010.75,786.86,997.76,786.48,989.62,806.94Z" transform="translate(-423 58.64)"/><path id="L-white_vein" data-name="L-white vein" class="cls-3" d="M556.49,474.72c-15.4-8.8-27.51-14.3-26.41-16.5,6.61,4.4,31.91,14.3,45.11,17.6s30.8,0,30.8,0-99-100.11-94.61-102.31c38.51,34.1,74.81,71.51,74.81,71.51v-18.7c0-11,0-13.21-8.8-34.11,1.1,0,11,15.4,11,15.4,3.3,6.6,6.6,22,4.4,44,10.28,10.05,33,29.7,50.61,49.5a38.32,38.32,0,0,0,1.1-15.4c0-18.7-17.6-47.3-17.6-47.3s16.5,23.1,19.8,35.2c5.5,19.8,3.3,33,3.3,36.31s11,9.9,11,12.1a29.55,29.55,0,0,0-11,0s-27.5-36.31-34.1-38.51C615.9,483.52,578.49,485.72,556.49,474.72Z" transform="translate(-423 58.64)"/><path id="T-white_vein" data-name="T-white vein" class="cls-3" d="M954.74,452.72c3.3-2.2,8.8,0,11,0,2.2-2.2,0-26.4,0-26.4S1067,339.41,1067,311.9c-41.81,62.71-101.21,101.21-101.21,101.21l-1.1-159.52s26.4-6.6,57.2-44c-6.6,5.5-47.3,37.4-55,34.1-2.2-2.2,2.2-172.72-3.3-182.62-3.3,22-1.1,119.92-4.4,118.82s-6.6-4.4-47.31-58.31c13.2,35.2,47.31,69.31,47.31,69.31l-4.4,107.81s-9.91-3.3-57.21-57.21c27.5,52.81,57.21,67.11,57.21,67.11V401s-27.51-4.4-105.62-99c46.21,85.81,104.52,113.31,104.52,113.31S951.44,450.52,954.74,452.72Z" transform="translate(-423 58.64)"/><path id="R-white_vein" data-name="R-white vein" class="cls-3" d="M1258.37,512.13c0,2.2-2.2,7.7,0,9.9,3.3-1.1,6.6,0,8.8,0,3.3,0,18.7-22,23.11-25.31,0,0,37.4,4.4,77-19.8-58.3,15.4-68.2,8.8-68.2,8.8s94.61-93.51,101.21-104.51c-13.2,7.7-68.21,61.61-77,71.51-1.1-1.1-3.3-11-3.3-21.45s1.1-21.46,5.5-31.36c-5.5,5.5-9.9,11-9.9,19.8-2.2,13.21,0,40.71,0,40.71S1258.37,509.93,1258.37,512.13Z" transform="translate(-423 58.64)"/><path id="B-white_vein" data-name="B-white vein" class="cls-3" d="M1054.85,964.28c6.6,4.4,53.9,34.1,56.1,28.6-14.3-7.7-37.4-26.4-37.4-26.4s62.71,13.2,100.11-9.9c-81.41,9.9-100.11,0-100.11,0s-53.91-17.6-91.31-18.7S936,957.68,936,957.68s-22-15.4-49.5-17.6-39.61,15.4-39.61,15.4-27.5-4.4-41.8-3.3c-40.71,4.4-63.81,17.6-63.81,19.8A460.9,460.9,0,0,1,804,958.78c8.8-1.1,25.3-1.1,29.7,2.2,0,6.6-27.5,20.9-42.9,25.3,9.9,5.5,40.7-12.1,46.2-16.5,3.3-2.2,20.9-20.9,46.21-20.9s48.95,14.85,48.95,14.85-1.65,6,.55,14.85C959.14,923.57,1048.25,959.88,1054.85,964.28Z" transform="translate(-423 58.64)"/><path class="cls-2" d="M795.81,709.05c-4-.16-118.15,1.31-132.5-15.27,99.72,9,126,2,126,2s-96-102.89-93.88-105.81,72.48,64.93,72.48,64.93,1.68-16.95-2.77-56.15c6,.23,12.41,65.54,12.41,65.54l63.57,62.57c4.75-8.08-10.85-54.47-7.5-63.35s25,77,25,77,6.63,9.27,14.55,11.59C910,785,804.72,711.4,795.81,709.05Z" transform="translate(-423 58.64)"/><path class="cls-2" d="M1039.69,732.7s100.42-6.69,111.87-15.89c-36,0-100.14,7.82-98.57,2.89s69.92-69.52,69.92-69.52,70.08-17.59,70.3-24.13a248,248,0,0,1-58,11.27s83.14-77.59,77.85-81.38c-10.85-7.79-125.11,107.23-124,108.48-3.8-4.19-4.46-31.26-4.73-86.54-10.39,7.7-8,81.9-4.88,93.62-2.11,7.36-75.83,80.81-92.85,93C986.63,772.5,1039.69,732.7,1039.69,732.7Z" transform="translate(-423 58.64)"/><path class="cls-2" d="M987.81,689.07c-7.41-10.44,38.81-99.93,34.86-66.1C1001.57,658.82,995.22,699.52,987.81,689.07Z" transform="translate(-423 58.64)"/><path class="cls-2" d="M916.64,539c-5,11-46-107-50-96C872.64,433,921.64,528,916.64,539Z" transform="translate(-423 58.64)"/></svg>