<svg id="Layer_1" data-name="Layer 1" xmlns="http://www.w3.org/2000/svg" viewBox="0 0 203.39 166.83"><defs><style>.cls-1{fill:#2d425c;}.cls-2{fill:#e4e9ed;}</style></defs><title>Message Boards at HF & LC</title>

<rect class="cls-1" x="0.22" width="203" height="165"/><a href="https://leafsconnected.com" target="_blank"><path id="lcbubble" class="cls-2" d="M135,35c19-6.92,59.77-3.55,68-2.67.13,8.86.3,102.62,0,113-14.65,1.89-41.15-2.76-48,0-9.25,6.76,9.5,13.67,10.88,20.67-5.38,0-7.66.83-12,.83-7.61-2-18.18-13.07-23.83-22.83-27,3-51.95-9.47-51.95-16.47C144.05,132.53,146,64,135,35Z" transform="translate(0.22 0)"/></a><a href="https://hfboards.com" target="_blank"><path id="hfbubble" class="cls-2" d="M130,39c8,26,9,94-67,82-9,1-35,33-41,31-7-6,20-34,5-31-11.89.66-20.67-2.92-27-9.06C-.13,104-.42,30.46,0,19.74,7.06,10.89,17.89,4.18,30.38,0H91.94C109.79,6.36,124.48,19,130,39Z" transform="translate(0.22 0)"/><path id="hletter" d="M40,45c-.29.1-1,.43-1,.75s.72,33.1.95,33.5A2.73,2.73,0,0,0,41,80c.52.08,4.35.38,5,0,.43-.25.83-1.62,1-2s-.85-13.52-.8-14a1.34,1.34,0,0,1,.8-1,15.77,15.77,0,0,1,5,0,2.9,2.9,0,0,1,1,1c.13.29.18,11.71,0,15,0,.48.67.91,1,1a31.4,31.4,0,0,0,4,0,2.59,2.59,0,0,0,1-1c.15-.33,0-32.65,0-33s-.6-.77-1-1a23.87,23.87,0,0,0-5,0,4.74,4.74,0,0,0-1,1c-.12.19.57,9.58.4,10s-.23,1-.4,1-4.67,0-5,0-.79-.62-1-1,1-9.56,1-10-.73-.86-1-1A50,50,0,0,0,40,45Z" transform="translate(0.22 0)"/><path id="fletter" d="M64.78,46.22c-.19.72-.56,20.44-.19,32.69.1.68.34.66.61,1.09a10.16,10.16,0,0,0,4.2,0c.26-.12.54-.72.79-1.19S69.25,62.53,69.44,60c.16-.12.21-.67.59-.69s7.06.35,7.66.25S78.84,59.31,79,59A17.9,17.9,0,0,0,79,56s-.06-.37-.75-.59-5.81.78-8.19-.44a3,3,0,0,1-.53-.91L69.66,50a1.38,1.38,0,0,1,.5-.75c.37-.25,8.28.53,8.56.41a1.36,1.36,0,0,0,.62-.69,16.91,16.91,0,0,0,.38-4,.85.85,0,0,0-.72-.46s-9.69-1.26-13.19.12A3.69,3.69,0,0,0,64.78,46.22Z" transform="translate(0.22 0)"/></a><a href="https://leafsconnected.com" target="_blank"><path id="lletter" d="M149.63,70.65c.56-.6,4.37-1.08,6.52-.72a4.17,4.17,0,0,1,.57,1.4c.28,1-.79,27.71-.54,28a3,3,0,0,0,1,1c.37.22,9.62-.64,11.88-.38a1.14,1.14,0,0,1,.64,1c0,.76.14,4.81-.26,5.09s-.49.56-.8.8c-1.21,1-17.61.95-18.11.52a5.83,5.83,0,0,1-1.68-1.84c-.4-.84.06-32.91.32-33.65Z" transform="translate(0.22 0)"/><path id="cletter" d="M187.16,70.29s-9.73-.77-14.7-.36c-.68.54-.56.86-.68,1.32-.9,7.57-.1,31.39.38,34.76a1.27,1.27,0,0,0,1,1.18c5.37.26,13.66-.19,13.66-.19a2.43,2.43,0,0,0,.63-1.23,11.9,11.9,0,0,0-.21-4.42,3.08,3.08,0,0,0-.54-1s-7.82,0-8.42-.17-1-.64-1-.94.2-21.59.53-22a1.21,1.21,0,0,1,.57-.81c.42-.25,8.51.16,8.83,0a2,2,0,0,0,.87-1,17.61,17.61,0,0,0,.23-4.53C188.21,70.49,187.16,70.29,187.16,70.29Z" transform="translate(0.22 0)"/></a></svg>