<?xml version="1.0" encoding="utf-8"?>
<!-- Generator: Adobe Illustrator 23.0.1, SVG Export Plug-In . SVG Version: 6.00 Build 0)  -->
<svg version="1.1" xmlns="http://www.w3.org/2000/svg" xmlns:xlink="http://www.w3.org/1999/xlink" x="0px" y="0px"
	 viewBox="0 0 150 170" style="enable-background:new 0 0 150 170;" xml:space="preserve">
<style type="text/css">
	.st0{fill:#FFFDFD;}
	.st1{fill:#F7F7F7;}
	.st2{fill:#FFFFFF;}
</style>
<g id="Layer_1">
	<path class="st0" d="M20.35,167.89C62.79,8.36,101,13,117.05,4.14C102,0,77,3,62.86,8.32C52,20,22.77,91.89,20.35,167.89z"/>
	<path class="st1" d="M63,11C38,55,31,98,31,98S61,8,108,4C94,3,70,6,63,11z"/>
	<path class="st2" d="M70.68,13.94c-2.5,0.74-2.97,2.04-2.97,2.04l-0.03-2C67.68,13.99,68.13,14.41,70.68,13.94z"/>
	<path class="st2" d="M64.28,13.74c2.21-0.9,2.94-2.08,2.94-2.08l0.06,2C67.28,13.65,66.78,13.19,64.28,13.74z"/>
	<path class="st2" d="M70.7,13.65c-2.4-0.8-3.03-1.96-3.03-1.96l0.03,2C67.7,13.69,68.03,13.19,70.7,13.65z"/>
	<path class="st2" d="M64.28,13.98c2.55,0.75,3,2,3,2l0-2C67.28,13.98,66.66,14.41,64.28,13.98z"/>
</g>
<g id="Layer_2">
</g>
</svg>
